<?xml version="1.0" standalone="no"?><!DOCTYPE svg PUBLIC "-//W3C//DTD SVG 1.1//EN" "http://www.w3.org/Graphics/SVG/1.1/DTD/svg11.dtd"><svg width="200" height="200" viewBox="0 0 200 200" version="1.1" xmlns="http://www.w3.org/2000/svg" xmlns:xlink="http://www.w3.org/1999/xlink"><defs><style type="text/css"><![CDATA[
@font-face { font-family: ifont; src: url("//at.alicdn.com/t/font_1442373896_4754455.eot?#iefix") format("embedded-opentype"), url("//at.alicdn.com/t/font_1442373896_4754455.woff") format("woff"), url("//at.alicdn.com/t/font_1442373896_4754455.ttf") format("truetype"), url("//at.alicdn.com/t/font_1442373896_4754455.svg#ifont") format("svg"); }

]]></style></defs><g class="transform-group"><g transform="scale(0.1953125, 0.1953125)"><path d="M60.385 130.657v662.691h335.49v56.79h236.268v-56.79h334.825v-662.691h-906.583zM888.806 717.912h-752.572v-510.828h752.572v510.828zM232.572 850.461h562.873v48.334h-562.873v-48.334zM780.742 513.098h-100.341c-2.457-7.716-5.425-15.203-8.877-22.417l72.825-49.936c7.606-5.215 9.562-15.706 4.346-23.311l-41.424-60.412c-5.215-7.606-15.706-9.562-23.311-4.346l-86.535 59.338c-0.076 0.052-0.147 0.108-0.22 0.16-9.807-5.377-20.183-9.84-31.013-13.287v-98.535c0-9.222-7.545-16.767-16.767-16.767h-73.251c-9.222 0-16.767 7.545-16.767 16.767v98.533c-10.107 3.217-19.815 7.324-29.037 12.226l-85.221-58.437c-7.606-5.215-18.097-3.26-23.311 4.346l-41.424 60.412c-5.215 7.606-3.26 18.097 4.346 23.311l70.195 48.133c-3.827 7.769-7.097 15.857-9.759 24.218h-97.915c-9.222 0-16.767 7.545-16.767 16.767v73.251c0 9.222 7.545 16.767 16.767 16.767h97.915c0.025 0.075 0.050 0.148 0.074 0.222h335.063c0.025-0.075 0.050-0.148 0.074-0.222h100.341c9.222 0 16.767-7.545 16.767-16.767v-73.251c0-9.219-7.545-16.765-16.767-16.765zM570.608 559.469c0 31.788-25.77 57.558-57.558 57.558s-57.558-25.77-57.558-57.558 25.77-57.558 57.558-57.558c25.232 0 46.656 16.243 54.427 38.836 2.044 4.164 3.625 8.597 4.656 13.239h-1.792c0.171 1.806 0.266 3.632 0.266 5.483z" fill="#f8c633"></path></g></g></svg>