<?xml version="1.0" standalone="no"?><!DOCTYPE svg PUBLIC "-//W3C//DTD SVG 1.1//EN" "http://www.w3.org/Graphics/SVG/1.1/DTD/svg11.dtd"><svg t="1555409706606" class="icon" style="" viewBox="0 0 1024 1024" version="1.1" xmlns="http://www.w3.org/2000/svg" p-id="7971" xmlns:xlink="http://www.w3.org/1999/xlink" width="20" height="20"><defs><style type="text/css"></style></defs><path d="M531.968 908.288V638.464c0-42.8544 21.9648-81.408 57.1392-102.8608v-4.2496s131.9936-68.608 127.5904-287.0784C712.2944 158.5152 659.456 0 487.936 0h-8.8064C303.1552 0 254.7712 154.2656 250.368 244.224c-4.4032 205.6704 127.5904 287.0784 127.5904 287.0784s17.6128 17.1008 17.6128 47.104c0 8.5504-13.2096 21.4016-22.016 30.0032-74.752 55.7056-334.336 115.712-351.9488 235.6224-13.1584 51.456-92.3648 132.8128 167.168 167.1168 70.4 8.5504 167.168 12.8512 299.1616 12.8512 52.7872 0 96.768 0 136.3968-4.3008-22.016-12.8-39.6288-25.7024-44.032-29.952-22.016-8.6016-48.384-38.6048-48.384-81.408z" p-id="7972" fill="#9c58b6"></path><path d="M972.8 558.592h-307.2c-25.6 0-51.2 18.5856-51.2 41.8304v293.2736c0 9.2672 10.24 18.5856 10.24 18.5856l174.08 107.0592c10.24 4.6592 15.36 4.6592 20.48 4.6592 5.12 0 10.24 0 20.48-9.3184l174.08-107.008s10.24-4.7104 10.24-13.9776v-293.2736c0-23.2448-20.48-41.8816-51.2-41.8816z m-5.12 162.816c-20.48 23.296-56.32 55.9104-56.32 55.9104s5.12 37.2224 10.24 65.1776c0 9.2672-10.24 18.5856-20.48 18.5856h-10.24c-25.6-9.3184-66.56-27.904-71.68-32.5632-10.24 4.608-46.08 18.5856-76.8 32.5632h-10.24c-10.24 0-20.48-9.3184-20.48-18.5856 5.12-27.9552 10.24-65.1776 10.24-65.1776s-35.84-37.2224-56.32-55.8592c-5.12-9.3184-5.12-18.6368 10.24-18.6368 30.72-4.608 76.8-13.9264 76.8-13.9264s25.6-37.2736 40.96-60.5184c20.48-23.296 20.48-23.296 25.6-23.296 5.12 0 5.12 0 20.48 18.6368 15.36 23.2448 40.96 60.5184 40.96 60.5184s46.08 9.2672 76.8 13.9264c15.36 4.6592 20.48 18.6368 10.24 23.296z" p-id="7973" fill="#9c58b6"></path></svg>