<?xml version="1.0" standalone="no"?><!DOCTYPE svg PUBLIC "-//W3C//DTD SVG 1.1//EN" "http://www.w3.org/Graphics/SVG/1.1/DTD/svg11.dtd"><svg class="icon" style="" viewBox="0 0 1024 1024" version="1.1" xmlns="http://www.w3.org/2000/svg" p-id="1515" xmlns:xlink="http://www.w3.org/1999/xlink" width="200" height="200"><defs><style type="text/css"><![CDATA[

]]></style></defs><path d="M290.890691 504.211313c-14.322688 0-27.499561 29.149286-27.213107 32.736891-48.983593 67.267584-91.665203 157.406147-85.36322 273.106391 0.286454 6.726758 0.859361 12.556616 1.432269 17.938022-1.718723 0-3.437445 0.896901-5.156168 2.690703 0 0-27.213107 29.597737-76.483154 59.643924-22.916301 13.901967-29.218284 40.809001-28.93183 54.710968l-13.74978-21.974077c-8.593613 15.247319-8.307159 38.566748 0.859361 53.365617 9.16652 14.798868 24.062116 15.69577 34.087997 2.690703l-12.317512-19.731825c26.926653 8.520561 85.076767-86.999409 106.274345-98.659123 9.452974 36.772946 24.062116-8.969011 24.062116-8.969011s-18.333041-203.596554 70.467625-269.070336C334.431662 540.984259 314.379899 504.211313 290.890691 504.211313L290.890691 504.211313z" p-id="1516" fill="#d81e06"></path><path d="M718.566154 511.386522c14.322688 0 32.369275 21.974077 31.796367 25.561682 50.415862 65.473782 77.915423 157.406147 71.326986 273.106391-0.286454 6.726758-0.859361 12.556616-1.432269 17.938022 1.718723 0 3.437445 0.896901 5.156168 2.690703 0 0 27.213107 29.597737 76.483154 59.643924 22.916301 13.901967 29.218284 40.809001 28.93183 54.710968l13.74978-21.974077c8.593613 15.247319 8.307159 38.566748-0.859361 53.365617-9.16652 14.798868-24.062116 15.69577-34.087997 2.690703l12.317512-19.731825c-26.926653 8.520561-85.076767-86.999409-106.274345-98.659123-9.452974 36.772946-24.062116-8.969011-24.062116-8.969011s21.484032-207.184159-67.316634-272.65794C668.7232 537.396654 694.790492 511.834972 718.566154 511.386522L718.566154 511.386522z" p-id="1517" fill="#d81e06"></path><path d="M362.393416 384.030464c-4.07978-2.097715-15.044188 2.996736-21.163858 2.697062 0 0-44.367606 0-113.723863-20.078131-39.012895-11.387597-60.686725 16.182374-61.196698 25.77193 0 0.599347 0.254986 1.198694 0.254986 1.798042-3.314821-0.599347-6.884628 0.599347-9.179505 3.895757 0 0-17.849037 27.569971-54.312069 62.631782-12.749312 12.286618-16.319119 26.371277-16.064133 36.260506-2.03989 1.198694-17.849037 10.188902-44.622592 17.381069-12.23934 3.29641-17.339064 12.885965-18.359009 18.579763l-6.629642-18.579763c-10.19945 6.293146-14.789202 20.677478-10.454436 33.563443 4.589752 12.586291 16.829092 18.879437 27.538514 14.684006l-7.904573-22.175846c13.514271 8.990208 52.527165-28.169318 65.021491-30.566707 25.498624 13.485312 63.491574-85.107302 80.575652-97.094246 0.764959-1.498368 1.529917-2.996736 1.784904-4.495104 30.598349 27.869645 140.752404 0.899021 165.48607 12.885965 8.15956 0 24.223693-23.674214 24.733665-32.964096C364.178319 385.828506 363.413361 384.629811 362.393416 384.030464L362.393416 384.030464z" p-id="1518" fill="#d81e06"></path><path d="M657.412495 384.030464c4.07978-2.097715 15.044188 2.996736 21.163858 2.697062 0 0 44.367606 0 113.723863-20.078131 39.012895-11.387597 60.686725 16.182374 61.196698 25.77193 0 0.599347-0.254986 1.198694-0.254986 1.798042 3.314821-0.599347 6.884628 0.599347 9.179505 3.895757 0 0 17.849037 27.569971 54.312069 62.631782 12.749312 12.286618 16.319119 26.371277 16.064133 36.260506 2.03989 1.198694 17.849037 10.188902 44.622592 17.381069 12.23934 3.29641 17.339064 12.885965 18.359009 18.579763l6.629642-18.579763c10.19945 6.293146 14.789202 20.677478 10.454436 33.563443-4.589752 12.586291-16.829092 18.879437-27.538514 14.684006l7.904573-22.175846c-13.514271 8.990208-52.527165-28.169318-65.021491-30.566707-25.498624 13.485312-63.491574-85.107302-80.575652-97.094246-0.764959-1.498368-1.529917-2.996736-1.784904-4.495104-30.598349 27.869645-140.752404 0.899021-165.48607 12.885965-8.15956 0-24.223693-23.674214-24.733665-32.964096C655.372605 385.828506 656.137564 384.629811 657.412495 384.030464L657.412495 384.030464z" p-id="1519" fill="#d81e06"></path><path d="M593.92 324.096c116.224-7.168 138.24 55.296 133.12 311.296-4.608 220.16-112.128 344.576-211.456 344.576-10.752-47.104-6.656-132.608-6.656-364.544C508.928 376.32 506.88 419.328 593.92 324.096L593.92 324.096z" p-id="1520" fill="#d81e06"></path><path d="M593.92 324.096c116.224-7.168 138.24 55.296 133.12 311.296-4.608 220.16-112.128 344.576-211.456 344.576-10.752-47.104-6.656-132.608-6.656-364.544C508.928 376.32 506.88 419.328 593.92 324.096L593.92 324.096z" p-id="1521" fill="#d81e06"></path><path d="M438.272 334.848c-121.344-7.168-154.624 44.544-148.992 300.544 4.608 220.16 119.296 344.576 222.72 344.576 11.264-47.104 5.632-132.608 5.632-364.544C517.12 375.808 529.408 429.568 438.272 334.848L438.272 334.848z" p-id="1522" fill="#d81e06"></path><path d="M307.2 375.296c-12.8 0-24.576-20.992-24.576-23.552-44.032-48.64-82.432-113.664-76.8-197.12 0.512-4.608 0.512-9.216 1.024-13.312-1.536 0-3.072-0.512-4.608-2.048 0 0-24.576-21.504-68.608-43.008-20.48-9.728-26.112-29.696-26.112-39.424l-12.288 15.872c-7.68-10.752-7.68-27.648 0.512-38.4s21.504-11.264 30.72-2.048l-10.752 14.336C139.776 40.96 192 110.08 211.456 118.272c8.192-26.624 21.504 6.656 21.504 6.656s-16.384 146.944 63.488 194.048C346.112 348.672 328.192 375.296 307.2 375.296L307.2 375.296z" p-id="1523" fill="#d81e06"></path><path d="M715.264 362.496c12.8 0 29.184-15.872 28.672-18.432 45.568-47.104 70.144-113.664 64-197.12-0.512-4.608-0.512-9.216-1.024-13.312 1.536 0 3.072-0.512 4.608-2.048 0 0 24.576-21.504 68.608-43.008 20.48-9.728 26.112-29.696 26.112-39.424l12.288 15.872c7.68-10.752 7.68-27.648-0.512-38.4-8.192-10.752-21.504-11.264-30.72-2.048l10.752 14.336c-24.064-6.144-76.288 62.976-95.744 71.168-8.192-26.624-21.504 6.656-21.504 6.656s19.456 150.016-60.416 197.12C670.208 343.552 693.76 362.496 715.264 362.496L715.264 362.496z" p-id="1524" fill="#d81e06"></path><path d="M292.864 55.808c-7.168-0.512-10.752 15.872 0.512 28.672 8.704 9.728-1.024 2.048 14.848 18.432 16.896 17.408 9.216 45.568 17.408 48.64 11.264 4.096 67.072-6.656 80.384-4.096 24.064 4.608 16.384 33.792 36.352 31.744 10.24-1.024 125.44 1.536 140.288-1.024 14.848-2.56 6.656-27.648 16.896-28.16 13.312-1.024 80.896 10.24 91.648-3.584 10.24-13.312 19.456-39.936 28.16-52.224 7.168-10.24 15.36-19.968 11.776-31.232-3.584-11.264-9.216-14.336-20.992-1.024-11.776 12.8-10.752 58.368-27.136 73.216-25.6 22.528-84.48-13.824-96.256 6.144-8.704 14.848-2.048 10.752-13.824 20.992-7.68 6.656-116.224 19.456-128.512-1.536-10.24-17.408-17.92-15.872-31.744-25.088-15.36-9.728-58.88 11.776-73.216 0.512-17.408-13.824-12.288-50.688-23.552-64C303.616 54.784 301.568 56.832 292.864 55.808L292.864 55.808z" p-id="1525" fill="#d81e06"></path><path d="M373.248 198.656c-43.008 42.496-64.512 130.048-37.888 172.544 86.016 34.304 262.656 35.84 343.552 0 26.624-42.496 3.072-133.632-31.744-176.128C577.536 181.76 453.632 181.248 373.248 198.656L373.248 198.656z" p-id="1526" fill="#d81e06"></path><path d="M409.6 154.624l101.376-4.608 102.912 4.608c18.432 1.024 29.696 12.288 29.696 27.136-6.656 76.8-258.048 76.8-264.192 0C379.904 166.912 395.776 154.624 409.6 154.624L409.6 154.624z" p-id="1527" fill="#d81e06"></path><path d="M409.6 154.624l101.376-4.608 102.912 4.608c18.432 1.024 29.696 12.288 29.696 27.136-6.656 76.8-258.048 76.8-264.192 0C379.904 166.912 395.776 154.624 409.6 154.624L409.6 154.624z" p-id="1528" fill="#d81e06"></path></svg>