<?xml version="1.0" standalone="no"?><!DOCTYPE svg PUBLIC "-//W3C//DTD SVG 1.1//EN" "http://www.w3.org/Graphics/SVG/1.1/DTD/svg11.dtd"><svg t="1594780328893" class="icon" viewBox="0 0 1024 1024" version="1.1" xmlns="http://www.w3.org/2000/svg" p-id="4767" width="20" height="20" xmlns:xlink="http://www.w3.org/1999/xlink"><defs><style type="text/css"></style></defs><path d="M1018.88 449.68L814.08 864.4c-10.24 20.48-30.72 35.84-56.32 35.84H107.52c-10.24 0-15.36-5.12-20.48-10.24-5.12-5.12-5.12-15.36 0-25.6l204.8-414.72c10.24-20.48 30.72-35.84 56.32-35.84h655.36c10.24 0 15.36 5.12 20.48 10.24 0 10.24 0 20.48-5.12 25.6zM855.04 342.16H245.76L0 854.16V173.2C0 147.6 20.48 122 51.2 122h317.44c25.6 0 51.2 20.48 51.2 51.2v51.2h440.32c25.6 0 51.2 20.48 51.2 51.2v25.6c0 15.36-5.12 25.6-15.36 35.84-15.36 0-25.6 5.12-40.96 5.12z" fill="#1296db" p-id="4768"></path></svg>