<?xml version="1.0" standalone="no"?><!DOCTYPE svg PUBLIC "-//W3C//DTD SVG 1.1//EN" "http://www.w3.org/Graphics/SVG/1.1/DTD/svg11.dtd"><svg width="20" height="20" viewBox="0 0 20 20" version="1.1" xmlns="http://www.w3.org/2000/svg" xmlns:xlink="http://www.w3.org/1999/xlink"><defs><style type="text/css"><![CDATA[
@font-face { font-family: ifont; src: url("//at.alicdn.com/t/font_1442373896_4754455.eot?#iefix") format("embedded-opentype"), url("//at.alicdn.com/t/font_1442373896_4754455.woff") format("woff"), url("//at.alicdn.com/t/font_1442373896_4754455.ttf") format("truetype"), url("//at.alicdn.com/t/font_1442373896_4754455.svg#ifont") format("svg"); }

]]></style></defs><g class="transform-group"><g transform="scale(0.01953125, 0.01953125)"><path d="M845.88544 116.43904 178.11456 116.43904c-34.21184 0-62.0544 27.83232-62.0544 62.04416l0 667.0336c0 34.21184 27.84256 62.0544 62.0544 62.0544l667.77088 0c34.21184 0 62.0544-27.84256 62.0544-62.0544L907.93984 178.4832C907.93984 144.26112 880.09728 116.43904 845.88544 116.43904zM803.81952 187.06432c14.6944 0 26.59328 11.90912 26.59328 26.59328 0 14.6944-11.89888 26.59328-26.59328 26.59328s-26.59328-11.90912-26.59328-26.59328C777.22624 198.97344 789.12512 187.06432 803.81952 187.06432zM708.52608 187.06432c14.6944 0 26.59328 11.90912 26.59328 26.59328 0 14.6944-11.89888 26.59328-26.59328 26.59328s-26.59328-11.90912-26.59328-26.59328C681.9328 198.97344 693.83168 187.06432 708.52608 187.06432zM837.02784 836.64896 186.97216 836.64896 186.97216 306.26816l650.04544 0L837.0176 836.64896zM512 802.21184c104.54016 0 192.6656-71.58784 217.96864-168.31488l3.93216-18.35008c2.18112-12.56448 3.3792-25.45664 3.3792-38.62528 0-124.22144-101.05856-225.28-225.28-225.28s-225.28 101.05856-225.28 225.28S387.77856 802.21184 512 802.21184zM342.08768 603.98592c1.98656-5.45792 3.42016-12.288 4.32128-19.712 8.50944-17.5616 25.33376-29.4912 13.4144-55.8592-4.9664-12.10368-20.36736-18.688-35.5328-23.04 16.42496-42.93632 47.16544-78.83776 86.38464-101.8368 63.0272 45.7216 5.28384 152.08448 65.25952 183.5008 51.75296 24.35072 24.35072-60.88704 66.97984-63.93856 15.22688 0 21.30944 27.40224 33.49504 33.49504 9.13408 3.04128 27.40224-15.22688 54.79424 7.60832 27.40224 22.8352 28.416-4.05504 34.5088-31.45728 3.04128-27.40224-28.416-24.86272-28.416-40.0896-6.0928-45.66016 15.22688-48.71168-24.35072-88.28928-0.90112-0.90112-1.92512-1.83296-2.92864-2.7648 61.35808 34.42688 102.93248 100.08576 102.93248 175.31904 0 12.09344-1.13664 23.92064-3.19488 35.4304-33.98656 17.8176-94.33088-4.608-99.85024 47.72864-2.3552 30.73024 24.53504 45.0048 33.86368 68.34176-26.95168 23.47008-60.17024 39.86432-96.8192 46.30528 5.1712-3.84 8.38656-10.05568 9.89184-16.2304 3.36896-13.81376-8.84736-24.70912-10.01472-37.90848-1.59744-17.99168-5.56032-42.87488-28.61056-43.64288-9.19552-0.3072-21.18656 4.77184-29.05088-1.4336-7.26016-5.72416-13.43488-11.54048-22.95808-12.86144-22.34368-3.10272-40.30464 17.11104-46.45888 36.51584-5.91872 18.66752 0.69632 39.92576 5.38624 58.90048-28.50816-13.73184-53.26848-34.01728-72.3968-58.86976 16.76288 7.6288 33.54624 6.38976 35.21536-16.05632C389.96992 656.0256 343.71584 631.30624 342.08768 603.98592z" fill="#62a3db"></path></g></g></svg>