<?xml version="1.0" standalone="no"?>
<!DOCTYPE svg PUBLIC "-//W3C//DTD SVG 1.1//EN" "http://www.w3.org/Graphics/SVG/1.1/DTD/svg11.dtd" >
<!--
2013-9-30: Created.
-->
<svg>
<metadata>
Created by iconfont
</metadata>
<defs>

<font id="extIcon" horiz-adv-x="1024" >
  <font-face
    font-family="extIcon"
    font-weight="500"
    font-stretch="normal"
    units-per-em="1024"
    ascent="896"
    descent="-128"
  />
    <missing-glyph />
    
    <glyph glyph-name="FileAPK" unicode="&#58909;" d="M751.80113 884.429379H210.932429a74.804068 74.804068 0 0 1-74.572655-74.572656v-851.713446A74.804068 74.804068 0 0 1 210.932429-116.42937900000004h708.700565a74.804068 74.804068 0 0 1 74.572656 74.572656V641.967006zM751.80113 716.6553670000001a74.861921 74.861921 0 0 1 74.572655-74.630508h167.774012L751.80113 884.429379zM18.223729 271.18644099999995m69.423729 0l569.853107 0q69.423729 0 69.423729-69.423729l0-185.129944q0-69.423729-69.423729-69.423728l-569.853107 0q-69.423729 0-69.423729 69.423728l0 185.129944q0 69.423729 69.423729 69.423729ZM147.814689 31.443164000000024a49.637966 49.637966 0 0 0-16.95096 40.497175 48.712316 48.712316 0 0 0 15.562486 38.703729q15.504633 13.711186 43.910508 13.711186H249.057627l2.371978-22.794124H190.510282a39.976497 39.976497 0 0 1-26.26531-7.752316 29.620791 29.620791 0 0 1 2.371977-45.067571 56.522486 56.522486 0 0 1 32.918418-8.215141 107.317514 107.317514 0 0 1 35.406102 4.570395c8.388701 3.066215 12.554124 7.347345 12.554124 12.901243l3.586893-23.141243a47.323842 47.323842 0 0 0-13.537627-9.487909 77.581017 77.581017 0 0 0-18.860113-5.785311 124.55774 124.55774 0 0 0-23.141243-2.024859c-20.364294-0.404972-36.389605 4.338983-47.728814 13.884746z m99.680904 100.143729a45.819661 45.819661 0 0 1-11.570621 33.265536 43.447684 43.447684 0 0 1-32.5713 11.570622 76.423955 76.423955 0 0 1-24.645423-4.049718 70.92791 70.92791 0 0 1-21.463503-11.570621L139.715254 173.24113a66.068249 66.068249 0 0 0 26.496723 18.80226 94.647684 94.647684 0 0 0 36.447458 6.71096 83.539887 83.539887 0 0 0 37.60452-7.752316 53.514124 53.514124 0 0 0 23.777627-22.447006 71.795706 71.795706 0 0 0 8.157288-35.406101v-113.449944h-24.703277zM307.489266 195.977401h24.298305v-248.305537H307.489266z m43.158418-171.997288a42.695593 42.695593 0 0 0-21.058531 23.141243l2.371977 36.910282a48.075932 48.075932 0 0 1 5.438192-22.215593 44.720452 44.720452 0 0 1 15.620339-17.355932 43.042712 43.042712 0 0 1 23.893333-6.248136 43.968362 43.968362 0 0 1 33.959774 13.132656 52.819887 52.819887 0 0 1 12.322712 37.025988V126.553672a54.266215 54.266215 0 0 1-12.091299 37.662373 48.885876 48.885876 0 0 1-57.853108 6.826667 44.778305 44.778305 0 0 1-15.620339-16.950961A46.282486 46.282486 0 0 1 331.787571 132.33898299999998l-3.586893 34.017627a56.001808 56.001808 0 0 0 24.414011 24.703277 78.101695 78.101695 0 0 0 35.463955 7.578757 58.778757 58.778757 0 0 0 32.050622-8.446554 52.704181 52.704181 0 0 0 20.422146-24.414011 97.36678 97.36678 0 0 0 6.88452-39.224407v-38.472316a93.143503 93.143503 0 0 0-6.88452-38.125198 52.935593 52.935593 0 0 0-20.884971-24.414011 62.076384 62.076384 0 0 0-32.976272-8.388701 80.99435 80.99435 0 0 0-36.216045 7.058079zM479.312994 266.963164h24.471865v-247.264181H479.312994z m17.355933-187.039096L596.754802 195.977401h28.926554l-133.582825-150.418079z m50.158644 35.058983l14.289717 23.141243 73.473446-118.714576h-29.736497zM454.783277 786.079096a178.071864 178.071864 0 0 1-178.014011-178.071864h356.085875A178.071864 178.071864 0 0 1 454.783277 786.079096zM280.703277 593.254689h348.16V363.75141199999996H280.703277zM386.400904 689.348701m-19.322938 0a19.322938 19.322938 0 1 1 38.645876 0 19.322938 19.322938 0 1 1-38.645876 0ZM515.35548 689.348701m-19.322938 0a19.322938 19.322938 0 1 1 38.645876 0 19.322938 19.322938 0 1 1-38.645876 0Z"  horiz-adv-x="1024" />

    
    <glyph glyph-name="FileZIP" unicode="&#58911;" d="M751.80113 884.429379H210.932429a74.804068 74.804068 0 0 1-74.572655-74.572656v-851.713446A74.804068 74.804068 0 0 1 210.932429-116.42937900000004h708.700565a74.804068 74.804068 0 0 1 74.572656 74.572656V641.967006zM751.80113 716.6553670000001a74.861921 74.861921 0 0 1 74.572655-74.630508h167.774012L751.80113 884.429379zM18.223729 271.18644099999995m69.423729 0l569.853107 0q69.423729 0 69.423729-69.423729l0-185.129944q0-69.423729-69.423729-69.423728l-569.853107 0q-69.423729 0-69.423729 69.423728l0 185.129944q0 69.423729 69.423729 69.423729ZM316.051525 177.17514100000005L220.709605 41.62531100000001h99.912316v-21.926328H189.179661v19.72791l97.251073 134.855593H191.783051V195.977401h124.268474zM354.234576 266.963164h24.471865V242.25988700000005h-24.471865z m0-70.75435h24.471865v-176.509831h-24.471865zM419.145763 195.977401h24.471864v-248.305537H419.145763z m43.158418-171.997288a42.695593 42.695593 0 0 0-21.058531 23.141243l2.371977 36.910282a48.075932 48.075932 0 0 1 5.438192-22.215593 44.720452 44.720452 0 0 1 15.620339-17.355932 43.042712 43.042712 0 0 1 23.83548-6.653107A43.968362 43.968362 0 0 1 522.702825 51.344633000000044a52.819887 52.819887 0 0 1 12.091299 36.968135V126.553672a54.266215 54.266215 0 0 1-12.091299 37.662373 48.885876 48.885876 0 0 1-57.853107 6.826667 44.778305 44.778305 0 0 1-15.620339-16.950961 46.282486 46.282486 0 0 1-5.438193-21.752768l-3.586892 34.017627a56.001808 56.001808 0 0 0 24.414011 24.703277 78.101695 78.101695 0 0 0 35.463955 7.578757A58.778757 58.778757 0 0 0 531.959322 190.19209a52.704181 52.704181 0 0 0 20.306441-24.58757 97.36678 97.36678 0 0 0 7.000226-39.050848v-38.472316a93.143503 93.143503 0 0 0-7.173786-38.414463 52.935593 52.935593 0 0 0-20.884971-24.414012 62.076384 62.076384 0 0 0-32.976272-8.3887 80.99435 80.99435 0 0 0-35.926779 7.347344z"  horiz-adv-x="1024" />

    
    <glyph glyph-name="FileExcel" unicode="&#58917;" d="M751.80113 884.429379H210.932429a74.804068 74.804068 0 0 1-74.572655-74.572656v-851.713446A74.804068 74.804068 0 0 1 210.932429-116.42937900000004h708.700565a74.804068 74.804068 0 0 1 74.572656 74.572656V641.967006zM751.80113 716.6553670000001a74.861921 74.861921 0 0 1 74.572655-74.630508h167.774012L751.80113 884.429379zM18.223729 271.18644099999995m69.423729 0l569.853107 0q69.423729 0 69.423729-69.423729l0-185.129944q0-69.423729-69.423729-69.423728l-569.853107 0q-69.423729 0-69.423729 69.423728l0 185.129944q0 69.423729 69.423729 69.423729ZM244.602938 756.631864h354.350282v-49.753672H244.602938zM294.35661 756.689718v-354.350283h-49.753672V756.689718zM410.062825 756.689718v-354.350283h-49.753672V756.689718zM525.76904 756.689718v-354.350283h-49.753673V756.689718zM641.475254 756.689718v-354.350283h-49.753672V756.689718zM244.602938 646.826667h354.350282v-49.753673H244.602938zM244.602938 537.021469h374.425311v-49.753672H244.602938zM244.602938 427.158418h396.872316v-49.753672h-396.872316zM242.809492 88.19706199999996l13.59548-20.248587-57.101017-77.176046h-27.422373z m1.041355-14.116158L172.922938 167.05084699999998h27.538079l57.853107-79.258757L330.630508-9.227571000000012h-27.248813z m4.570396 16.314576l52.067797 76.88678h27.538079L261.20678 72.05604500000004zM376.103051 37.17062099999998a25.281808 25.281808 0 0 1 5.785311-17.355932 19.72791 19.72791 0 0 1 15.388926-6.190282h16.314576v-22.794125h-20.653559a38.35661 38.35661 0 0 0-30.546441 12.264859 50.44791 50.44791 0 0 0-10.818531 34.711865v200.229604h24.529718zM479.775819-11.773106999999982l-13.479774 2.776949a115.706215 115.706215 0 0 0-25.050395 8.272994 91.697175 91.697175 0 0 0-20.65356 13.074802l14.116159 17.355933a129.533107 129.533107 0 0 1 29.910056-15.041808 89.55661 89.55661 0 0 1 29.389379-5.380339A74.109831 74.109831 0 0 1 533.116384 17.78983100000005a27.36452 27.36452 0 0 1 13.884746 24.529717 21.579209 21.579209 0 0 1-6.710961 17.355932 36.563164 36.563164 0 0 1-16.95096 7.868023 247.032768 247.032768 0 0 1-28.405876 3.35548h-9.661469a167.36904 167.36904 0 0 0-29.273672 5.091073 40.497175 40.497175 0 0 0-19.670056 12.785537 40.786441 40.786441 0 0 0-7.868023 27.017401 49.52226 49.52226 0 0 0 8.215141 28.926554 51.315706 51.315706 0 0 0 24.182599 18.165876 103.094237 103.094237 0 0 0 38.183051 6.305988 120.045198 120.045198 0 0 0 23.141243-2.256271 121.896497 121.896497 0 0 0 22.504859-6.016723 99.507345 99.507345 0 0 0 19.496497-10.471412l-14.116158-16.835255a118.945989 118.945989 0 0 1-26.207458 11.570622 91.002938 91.002938 0 0 1-25.51322 3.991864 60.977175 60.977175 0 0 1-34.711865-8.330847 26.785989 26.785989 0 0 1-12.207005-23.488362 18.80226 18.80226 0 0 1 6.479548-15.967457 36.794576 36.794576 0 0 1 16.777401-6.88452 267.91774 267.91774 0 0 1 27.827344-2.719096H504.189831a6.595254 6.595254 0 0 1 1.446327 0h2.082712a154.409944 154.409944 0 0 0 31.529944-4.570396 42.869153 42.869153 0 0 0 21.868474-14.116158 46.282486 46.282486 0 0 0 8.851526-30.430734 48.133785 48.133785 0 0 0-8.851526-29.273673 55.134011 55.134011 0 0 0-25.860339-18.455141 117.731073 117.731073 0 0 0-41.017853-6.363842z"  horiz-adv-x="1024" />

    
    <glyph glyph-name="FilePPT" unicode="&#58919;" d="M751.80113 884.429379H210.932429a74.804068 74.804068 0 0 1-74.572655-74.572656v-851.713446A74.804068 74.804068 0 0 1 210.932429-116.42937900000004h708.700565a74.804068 74.804068 0 0 1 74.572656 74.572656V641.967006zM751.80113 716.6553670000001a74.861921 74.861921 0 0 1 74.572655-74.630508h167.774012L751.80113 884.429379zM18.223729 271.18644099999995m69.423729 0l569.853107 0q69.423729 0 69.423729-69.423729l0-185.129944q0-69.423729-69.423729-69.423728l-569.853107 0q-69.423729 0-69.423729 69.423728l0 185.129944q0 69.423729 69.423729 69.423729ZM172.575819 207.54802299999994h24.471865v-248.305537h-24.471865z m43.216271-171.997289a42.811299 42.811299 0 0 0-21.116384 23.141243l2.371978 36.910283a48.191638 48.191638 0 0 1 5.496045-22.215593 43.852655 43.852655 0 0 1 15.620339-17.355933 43.042712 43.042712 0 0 1 23.83548-6.653107 43.968362 43.968362 0 0 1 34.133333 13.190509 52.819887 52.819887 0 0 1 12.0913 36.968135V138.12429399999996a54.266215 54.266215 0 0 1-12.0913 37.662373 43.621243 43.621243 0 0 1-34.133333 13.364067 43.447684 43.447684 0 0 1-23.83548-6.537401 43.910508 43.910508 0 0 1-15.620339-16.95096 46.282486 46.282486 0 0 1-5.496045-21.752768l-3.52904 34.017627a55.712542 55.712542 0 0 0 24.414011 24.703276 77.812429 77.812429 0 0 0 35.406102 7.578758 59.010169 59.010169 0 0 0 32.108475-8.446554 53.398418 53.398418 0 0 0 20.30644-24.587571 98.350282 98.350282 0 0 0 6.942373-39.050847v-38.472317a94.069153 94.069153 0 0 0-7.115932-38.414463 53.051299 53.051299 0 0 0-20.942825-24.414011 61.960678 61.960678 0 0 0-32.976271-8.388701 80.99435 80.99435 0 0 0-35.868927 7.347345zM344.63096 207.54802299999994h24.471865v-248.305537h-24.471865z m43.158419-171.997289a42.695593 42.695593 0 0 0-21.058532 23.141243l2.371978 36.910283a48.075932 48.075932 0 0 1 5.438192-22.215593 44.431186 44.431186 0 0 1 15.678192-17.355933 42.695593 42.695593 0 0 1 23.777627-6.653107 43.968362 43.968362 0 0 1 34.191187 13.537627 52.819887 52.819887 0 0 1 12.091299 36.968136V138.12429399999996a54.266215 54.266215 0 0 1-12.091299 37.662373 43.679096 43.679096 0 0 1-34.191187 13.364067 43.100565 43.100565 0 0 1-23.777627-6.537401 44.48904 44.48904 0 0 1-15.678192-16.95096 46.282486 46.282486 0 0 1-5.438192-21.752768l-3.760452 34.133333a56.001808 56.001808 0 0 0 24.414011 24.703277 78.275254 78.275254 0 0 0 35.463955 7.578757 58.778757 58.778757 0 0 0 32.224181-8.56226 52.704181 52.704181 0 0 0 20.30644-24.587571 97.36678 97.36678 0 0 0 7.000226-39.050847v-38.472317a94.069153 94.069153 0 0 0-7.115932-38.414463 53.340565 53.340565 0 0 0-20.942825-24.414011 62.076384 62.076384 0 0 0-32.976271-8.388701 80.99435 80.99435 0 0 0-35.926779 7.347345zM503.032768 207.54802299999994h79.605876v-21.058531H503.032768z m28.174464-165.575594c-6.653107 7.925876-9.950734 19.55435-9.950735 35.00113v182.179435h24.471865v-182.295141a26.843842 26.843842 0 0 1 5.091073-17.355932 18.512994 18.512994 0 0 1 15.157514-6.132429h16.661695v-22.794125h-20.075028q-21.40565-0.173559-31.356384 11.628475zM483.073446 696.40678m-89.672316 0a89.672316 89.672316 0 1 1 179.344633 0 89.672316 89.672316 0 1 1-179.344633 0ZM350.011299 459.20904m-89.672316 0a89.672316 89.672316 0 1 1 179.344633 0 89.672316 89.672316 0 1 1-179.344633 0ZM633.491525 459.20904m-89.672316 0a89.672316 89.672316 0 1 1 179.344633 0 89.672316 89.672316 0 1 1-179.344633 0Z"  horiz-adv-x="1024" />

    
    <glyph glyph-name="FileTXT" unicode="&#58922;" d="M751.80113 884.429379H210.932429a74.804068 74.804068 0 0 1-74.572655-74.572656v-851.713446A74.804068 74.804068 0 0 1 210.932429-116.42937900000004h708.700565a74.804068 74.804068 0 0 1 74.572656 74.572656V641.967006zM751.80113 716.6553670000001a74.861921 74.861921 0 0 1 74.572655-74.630508h167.774012L751.80113 884.429379zM18.223729 271.18644099999995m69.423729 0l569.853107 0q69.423729 0 69.423729-69.423729l0-185.129944q0-69.423729-69.423729-69.423728l-569.853107 0q-69.423729 0-69.423729 69.423728l0 185.129944q0 69.423729 69.423729 69.423729ZM279.314802 710.349379h354.350283v-49.753673H279.314802zM279.314802 600.544181h354.350283v-49.753673H279.314802zM279.314802 490.738983h472.428475v-49.753672H279.314802zM279.314802 380.87593200000003h578.126102v-49.753672H279.314802zM207.345537 167.05084699999998h79.605875v-21.058531H207.345537z m28.174463-165.575593c-6.653107 7.925876-9.950734 19.55435-9.950734 35.00113v182.179435h24.471864v-182.295141a26.843842 26.843842 0 0 1 5.091073-17.355932 18.512994 18.512994 0 0 1 15.157515-6.13243h16.661694v-22.794124H266.99209q-21.521356-0.173559-31.47209 11.628475zM371.127684 88.19706199999996l13.59548-20.248587-57.15887-77.176046h-27.422373z m1.041356-14.116158L301.183277 167.05084699999998h27.538079l57.853107-79.258757 72.489944-97.251073h-27.480226z m4.570395 16.314576L428.980791 167.05084699999998h27.595932l-67.167457-94.994802zM466.238192 167.05084699999998H545.844068v-21.058531H466.238192z m28.174463-165.575593c-6.653107 7.925876-9.950734 19.55435-9.950734 35.00113v182.179435h24.471864v-182.295141a26.496723 26.496723 0 0 1 5.091074-17.355932 18.512994 18.512994 0 0 1 15.157514-6.13243h16.661695v-22.794124h-20.075028q-21.579209-0.173559-31.356385 11.628475z"  horiz-adv-x="1024" />

    
    <glyph glyph-name="FileMP4" unicode="&#58929;" d="M751.80113 884.429379H210.932429a74.804068 74.804068 0 0 1-74.572655-74.572656v-851.713446A74.804068 74.804068 0 0 1 210.932429-116.42937900000004h708.700565a74.804068 74.804068 0 0 1 74.572656 74.572656V641.967006zM751.80113 716.6553670000001a74.861921 74.861921 0 0 1 74.572655-74.630508h167.774012L751.80113 884.429379zM18.223729 271.18644099999995m69.423729 0l569.853107 0q69.423729 0 69.423729-69.423729l0-185.129944q0-69.423729-69.423729-69.423728l-569.853107 0q-69.423729 0-69.423729 69.423728l0 185.129944q0 69.423729 69.423729 69.423729ZM76.076836 201.76271199999996h24.298305v-176.509831H76.076836z m110.557288-69.423729a53.919096 53.919096 0 0 1-11.165649 36.389605 39.513672 39.513672 0 0 1-31.703503 12.901243 42.406328 42.406328 0 0 1-31.877062-11.570622 45.125424 45.125424 0 0 1-11.570622-32.918418l-3.529039 34.017627a56.522486 56.522486 0 0 0 23.141243 25.51322 68.555932 68.555932 0 0 0 33.381242 7.81017 56.23322 56.23322 0 0 0 31.182825-8.504407 52.067797 52.067797 0 0 0 19.72791-24.58757 101.821469 101.821469 0 0 0 6.71096-39.050848v-107.143955h-24.471864z m110.499435 0a53.629831 53.629831 0 0 1-11.223503 36.389605 39.513672 39.513672 0 0 1-31.587796 12.901243 40.844294 40.844294 0 0 1-31.934915-12.554125 51.2 51.2 0 0 1-11.281356-35.406101l-10.355707 25.51322a75.614011 75.614011 0 0 0 23.604068 33.612655 57.853107 57.853107 0 0 0 36.389605 11.570622 61.613559 61.613559 0 0 0 32.744859-8.388701 52.993446 52.993446 0 0 0 20.827118-24.58757 95.284068 95.284068 0 0 0 7.173786-39.050848v-107.143955h-24.529718zM356.780113 201.76271199999996h24.471864v-248.305537h-24.471864zM400.054237 29.99683600000003a42.811299 42.811299 0 0 0-21.116384 23.141243l2.371978 36.910283a48.828023 48.828023 0 0 1 5.438192-22.215594 44.431186 44.431186 0 0 1 15.678192-17.355932 42.811299 42.811299 0 0 1 23.777627-6.653107 43.968362 43.968362 0 0 1 34.133333 13.306215 52.819887 52.819887 0 0 1 12.0913 36.968135V132.33898299999998a54.266215 54.266215 0 0 1-12.0913 37.662373 43.679096 43.679096 0 0 1-34.191186 13.364068 43.274124 43.274124 0 0 1-23.777627-6.537401 44.48904 44.48904 0 0 1-15.678193-16.950961 46.803164 46.803164 0 0 1-5.438192-21.752768l-3.529039 34.017627a55.596836 55.596836 0 0 0 24.356158 24.703277 78.275254 78.275254 0 0 0 35.463955 7.578757A58.663051 58.663051 0 0 0 469.477966 195.977401a53.167006 53.167006 0 0 0 20.364294-24.58757 98.350282 98.350282 0 0 0 6.942373-38.935142v-38.472316a94.069153 94.069153 0 0 0-7.115932-38.414463 53.340565 53.340565 0 0 0-20.942825-24.414012 62.076384 62.076384 0 0 0-32.976271-8.3887 80.99435 80.99435 0 0 0-35.695368 7.231638zM523.686328 83.27954799999998l83.019209 189.295367h25.51322l-80.99435-187.212655h131.44226v-21.984181H523.686328z m111.772203 87.589605h23.604068v-145.558419h-23.604068zM622.557288 598.4614690000001L403.525424 724.928362a50.563616 50.563616 0 0 1-75.845424-43.794803v-252.933785a50.563616 50.563616 0 0 1 75.845424-43.794802l219.031864 126.466892a50.563616 50.563616 0 0 1 0 87.589605z"  horiz-adv-x="1024" />

    
    <glyph glyph-name="FilePSD" unicode="&#58932;" d="M751.80113 884.429379H210.932429a74.804068 74.804068 0 0 1-74.572655-74.572656v-851.713446A74.804068 74.804068 0 0 1 210.932429-116.42937900000004h708.700565a74.804068 74.804068 0 0 1 74.572656 74.572656V641.967006zM751.80113 716.6553670000001a74.861921 74.861921 0 0 1 74.572655-74.630508h167.774012L751.80113 884.429379zM18.223729 271.18644099999995m69.423729 0l569.853107 0q69.423729 0 69.423729-69.423729l0-185.129944q0-69.423729-69.423729-69.423728l-569.853107 0q-69.423729 0-69.423729 69.423728l0 185.129944q0 69.423729 69.423729 69.423729ZM279.314802 710.349379h354.350283v-49.753673H279.314802zM279.314802 600.544181h354.350283v-49.753673H279.314802zM279.314802 490.738983h472.428475v-49.753672H279.314802zM279.314802 380.87593200000003h578.126102v-49.753672H279.314802zM139.715254 201.76271199999996h24.471865v-248.305537H139.715254z m43.158418-171.997288a42.695593 42.695593 0 0 0-21.058531 23.141243l2.371978 36.910282a48.075932 48.075932 0 0 1 5.438192-22.215593 44.431186 44.431186 0 0 1 15.678192-17.355932 42.695593 42.695593 0 0 1 23.83548-6.248136 43.968362 43.968362 0 0 1 34.364746 13.132656 52.819887 52.819887 0 0 1 11.91774 37.025988V132.33898299999998a54.266215 54.266215 0 0 1-12.0913 37.662373 43.679096 43.679096 0 0 1-34.191186 13.479774 43.100565 43.100565 0 0 1-23.777627-6.537401 44.48904 44.48904 0 0 1-15.678192-16.950961 46.282486 46.282486 0 0 1-5.438192-21.752768l-3.586893 34.017627a56.001808 56.001808 0 0 0 24.414011 24.703277 78.275254 78.275254 0 0 0 35.637515 7.578757 58.778757 58.778757 0 0 0 32.050621-8.56226 52.704181 52.704181 0 0 0 20.306441-24.58757 97.36678 97.36678 0 0 0 7.000226-39.050848v-38.472316a93.143503 93.143503 0 0 0-7.289492-38.125198 52.935593 52.935593 0 0 0-20.884972-24.414011 62.076384 62.076384 0 0 0-32.976271-8.388701 80.99435 80.99435 0 0 0-35.811073 7.058079zM358.4 22.93875700000001l-13.421921 2.776949a115.185537 115.185537 0 0 0-25.108248 8.272995 90.945085 90.945085 0 0 0-20.65356 13.074802l14.116158 17.355932a129.533107 129.533107 0 0 1 29.910057-15.041808 89.845876 89.845876 0 0 1 29.447232-5.380339A73.762712 73.762712 0 0 1 411.624859 52.50169500000004a27.36452 27.36452 0 0 1 13.884746 24.529717 21.579209 21.579209 0 0 1-6.710961 17.355933 36.563164 36.563164 0 0 1-16.95096 7.868022 245.412881 245.412881 0 0 1-28.405876 3.35548h-9.661469a168.352542 168.352542 0 0 0-29.273672 5.091074 39.860791 39.860791 0 0 0-19.612204 12.785537 40.786441 40.786441 0 0 0-7.405197 27.653785 49.580113 49.580113 0 0 0 8.272994 28.926554 51.142147 51.142147 0 0 0 24.124746 18.165875 103.094237 103.094237 0 0 0 38.18305 6.305989 121.086554 121.086554 0 0 0 23.141243-2.256271 122.706441 122.706441 0 0 0 21.984181-6.653108 99.507345 99.507345 0 0 0 19.496497-10.471412l-14.116158-16.835254a121.491525 121.491525 0 0 1-26.207457 11.570621 90.655819 90.655819 0 0 1-25.513221 3.991865 60.861469 60.861469 0 0 1-34.711864-8.330848 26.843842 26.843842 0 0 1-12.264859-23.488361 18.628701 18.628701 0 0 1 6.537401-15.967458 36.563164 36.563164 0 0 1 16.719548-6.88452 269.59548 269.59548 0 0 1 27.827345-2.719096H385.880226a153.773559 153.773559 0 0 0 31.529943-4.570395 42.869153 42.869153 0 0 0 21.868475-14.116158 46.282486 46.282486 0 0 0 8.851525-30.430735 48.133785 48.133785 0 0 0-8.851525-29.273672 55.134011 55.134011 0 0 0-25.860339-18.455141 117.615367 117.615367 0 0 0-40.96-6.363842zM498.40452 31.32745799999998a53.340565 53.340565 0 0 0-20.942825 24.414011 94.069153 94.069153 0 0 0-7.115932 38.414463V132.33898299999998a97.36678 97.36678 0 0 0 7.000226 38.935141 52.704181 52.704181 0 0 0 20.017175 24.703277 58.778757 58.778757 0 0 0 32.050621 8.388701 78.275254 78.275254 0 0 0 35.463955-7.578757 56.001808 56.001808 0 0 0 24.414011-24.703277l-3.586892-33.959774a47.092429 47.092429 0 0 1-5.380339 21.926327 42.63774 42.63774 0 0 1-15.562486 16.835255 49.232994 49.232994 0 0 1-57.853107-6.88452 54.266215 54.266215 0 0 1-12.380565-37.662373v-38.298757a52.819887 52.819887 0 0 1 12.091299-36.910282 43.968362 43.968362 0 0 1 34.191186-13.190509 42.695593 42.695593 0 0 1 23.777628 6.653107 44.431186 44.431186 0 0 1 15.678192 17.355933 48.075932 48.075932 0 0 1 5.438192 22.215593l2.371977-36.910283a42.695593 42.695593 0 0 0-21.058531-23.141243 80.99435 80.99435 0 0 0-35.92678-7.058079 62.076384 62.076384 0 0 0-32.687005 8.272995z m87.589604 241.421017h24.471865v-247.264181h-24.76113z"  horiz-adv-x="1024" />

    
    <glyph glyph-name="FileWord" unicode="&#58936;" d="M751.80113 884.429379H210.932429a74.804068 74.804068 0 0 1-74.572655-74.572656v-851.713446A74.804068 74.804068 0 0 1 210.932429-116.42937900000004h708.700565a74.804068 74.804068 0 0 1 74.572656 74.572656V641.967006zM751.80113 716.6553670000001a74.861921 74.861921 0 0 1 74.572655-74.630508h167.774012L751.80113 884.429379zM18.223729 271.18644099999995m69.423729 0l569.853107 0q69.423729 0 69.423729-69.423729l0-185.129944q0-69.423729-69.423729-69.423728l-569.853107 0q-69.423729 0-69.423729 69.423728l0 185.129944q0 69.423729 69.423729 69.423729ZM279.314802 710.349379h354.350283v-49.753673H279.314802zM279.314802 600.544181h354.350283v-49.753673H279.314802zM279.314802 490.738983h472.428475v-49.753672H279.314802zM279.314802 380.87593200000003h578.126102v-49.753672H279.314802zM166.269831-9.169717999999989a53.224859 53.224859 0 0 0-20.769266 24.414012 94.069153 94.069153 0 0 0-7.173785 38.414463V91.84180800000001a97.36678 97.36678 0 0 0 7.173785 39.224407 52.704181 52.704181 0 0 0 20.017175 24.414011 58.952316 58.952316 0 0 0 32.050622 8.56226 78.101695 78.101695 0 0 0 35.463954-7.578757 55.712542 55.712542 0 0 0 24.414012-24.703277l-3.586893-34.133333a47.728814 47.728814 0 0 1-5.322486 21.926327 43.447684 43.447684 0 0 1-15.562486 16.835255 44.199774 44.199774 0 0 1-23.83548 6.595254 43.679096 43.679096 0 0 1-34.191186-13.364068A54.266215 54.266215 0 0 1 162.856497 91.84180800000001v-38.298757a52.762034 52.762034 0 0 1 11.91774-36.910283 43.968362 43.968362 0 0 1 34.364746-13.132655 43.042712 43.042712 0 0 1 23.83548 6.653107 44.720452 44.720452 0 0 1 15.620339 17.355933 48.075932 48.075932 0 0 1 5.438192 22.215593l2.371978-36.910283a42.695593 42.695593 0 0 0-21.058531-23.141243 80.99435 80.99435 0 0 0-35.868927-7.058079 62.19209 62.19209 0 0 0-33.207683 8.215141z m87.589604 241.421017H278.562712v-247.26418h-24.703277zM342.20113-8.53333299999997a59.241582 59.241582 0 0 0-24.934689 26.26531 92.564972 92.564972 0 0 0-8.56226 41.538531v28.926554a90.48226 90.48226 0 0 0 8.56226 41.075706 59.299435 59.299435 0 0 0 24.934689 26.033899 80.589379 80.589379 0 0 0 39.28226 8.909378 80.99435 80.99435 0 0 0 39.28226-8.909378 59.183729 59.183729 0 0 0 24.876836-26.033899 90.48226 90.48226 0 0 0 8.620113-41.075706v-29.215819a90.887232 90.887232 0 0 0-8.620113-41.249266 59.299435 59.299435 0 0 0-24.876836-26.091751 80.126554 80.126554 0 0 0-39.28226-9.025085 79.952994 79.952994 0 0 0-39.28226 8.851526z m75.209039 27.769491a57.043164 57.043164 0 0 1 12.669831 39.571526v29.215819a56.291073 56.291073 0 0 1-12.669831 39.28226 45.935367 45.935367 0 0 1-35.811073 13.942599 45.414689 45.414689 0 0 1-35.579661-13.942599 56.522486 56.522486 0 0 1-12.554124-39.28226v-29.215819a57.274576 57.274576 0 0 1 12.554124-39.571526 45.414689 45.414689 0 0 1 35.174689-14.174011 45.935367 45.935367 0 0 1 35.811074 14.174011zM531.785763-17.55841799999996l-17.008814 8.504407a55.134011 55.134011 0 0 0-25.397514 25.686779 95.920452 95.920452 0 0 0-8.330847 42.522034v28.926554a93.08565 93.08565 0 0 0 8.504406 42.174915 55.538983 55.538983 0 0 0 25.455368 25.281808 94.821243 94.821243 0 0 0 42.406327 8.388701 104.135593 104.135593 0 0 0 26.381017-3.124068 69.944407 69.944407 0 0 0 21.232091-9.372204 62.828475 62.828475 0 0 0 16.314576-15.736045l-18.165876-16.141017a59.877966 59.877966 0 0 1-20.364294 16.256723 57.853107 57.853107 0 0 1-24.876836 5.322486q-26.381017 0-39.397966-13.132655t-13.016949-39.918644v-28.926554q0-27.075254 13.132655-40.497175t39.166554-13.59548a65.431864 65.431864 0 0 1 26.265311 5.091073 63.291299 63.291299 0 0 1 21.347796 15.44678l15.793899-15.620339a62.597062 62.597062 0 0 0-16.314577-15.44678 69.423729 69.423729 0 0 0-21.23209-9.198644 104.135593 104.135593 0 0 0-26.381017-3.066214z"  horiz-adv-x="1024" />

    
    <glyph glyph-name="File" unicode="&#58938;" d="M738.613988 885.06567H227.434063c-38.816871 0-70.526428-31.709557-70.526428-70.526428v-804.766685c0-38.816871 31.709557-70.526428 70.526428-70.526428h669.72771c38.816871 0 70.526428 31.709557 70.526428 70.526428V655.991458L738.613988 885.06567zM738.613988 726.517886c0-38.816871 31.709557-70.526428 70.526428-70.526428h158.547785L738.613988 885.06567v-158.547784zM110.983449 305.54618300000004h538.51575c36.083289 0 65.60598-29.522691 65.60598-65.60598v-174.949279c0-36.083289-29.522691-65.60598-65.60598-65.60598H110.983449c-36.083289 0-65.60598 29.522691-65.60598 65.60598v174.949279c0 36.083289 29.522691 65.60598 65.60598 65.60598zM278.278697 208.23064599999998c0 16.401495-0.546716 27.882541-0.546716 34.989856h18.041644c-0.546716-6.560598-0.546716-18.041644-0.546716-34.989856h35.536572c10.387613 0 20.22851 0 28.975974 0.546717v-14.761346c-9.29418 0.546716-19.135077 0.546716-28.975974 0.546717h-35.536572v-32.256274h48.111051c12.027763 0 22.962093 0 33.349707 0.546717v-14.761346c-10.387613 0.546716-21.321943 0.546716-32.256274 0.546717h-38.816871c9.840897-14.761345 20.22851-27.335825 32.256274-37.723439 11.481046-10.387613 27.882541-18.588361 49.204484-24.602242-7.107314-3.280299-12.027763-8.747464-14.761345-16.948211-14.761345 5.467165-28.429258 13.667912-41.003737 24.602242s-24.602242 26.242392-35.536573 45.377469v-56.858515c0-10.387613 0-19.681794 0.546717-28.429258h-18.588361c1.093433 8.747464 1.640149 18.041644 1.640149 28.429258V141.53123300000004c-13.121196-21.321943-25.695675-37.176722-38.270155-48.111051-12.574479-10.93433-23.508809-19.681794-33.349706-26.242392-2.186866 4.920448-7.107314 9.840897-14.761345 14.761345 9.29418 3.280299 20.775227 10.93433 35.536572 22.962093 14.214629 12.027763 26.789108 26.242392 37.723438 43.73732H225.793914c-12.027763 0-21.321943-0.546716-27.335825-0.546717V163.39989300000002c8.200747-0.546716 18.041644-0.546716 28.975974-0.546716h51.938067v32.256273h-33.896423c-13.121196 0-23.508809-0.546716-31.709556-0.546716v14.761345c8.200747-0.546716 18.041644-0.546716 30.069407-0.546716h34.443139zM417.144688 85.76615100000004c5.467165 8.200747 10.387613 16.948211 14.214629 26.242391 3.827015 8.747464 6.013881 17.494928 7.107314 26.242392-20.22851 0-34.443139-0.546716-43.190603-0.546716v15.308062c8.200747-0.546716 23.508809-0.546716 45.377469-0.546717 1.640149 11.481046 2.186866 25.148959 2.186866 41.550454h-18.588361c-2.733582-7.654031-6.560598-16.401495-12.027763-26.789108-6.013881 1.640149-11.481046 2.733582-16.401495 3.827015 3.827015 5.467165 7.654031 12.574479 11.481047 21.321944 3.827015 8.747464 7.107314 17.494928 9.29418 26.242391 2.186866 8.200747 4.373732 15.854778 5.467165 22.415377 5.467165-1.640149 11.481046-2.733582 18.588361-3.827016-2.733582-3.827015-4.920448-8.200747-6.560598-13.121196s-3.280299-10.387613-5.467165-16.401494c30.616124 0 50.297918 0 57.405232 0.546716v-14.761345h-27.335825c0-12.027763-0.546716-25.695675-1.640149-41.550454 13.121196 0 24.602242 0 33.896423 0.546716v-15.308062c-9.840897 0.546716-21.86866 0.546716-36.630005 0.546717-0.546716-6.013881-1.640149-11.481046-3.280299-16.948212 4.920448-3.827015 10.387613-8.200747 16.401494-12.574479 6.013881-4.373732 13.667912-12.574479 22.962093-22.962093-3.827015-1.640149-8.200747-5.467165-13.121196-11.481046-4.920448 8.200747-9.840897 14.761345-14.761345 19.681794-4.920448 4.920448-10.387613 9.840897-15.854778 14.214628-3.280299-8.747464-8.200747-18.041644-14.761346-27.335824-6.560598-9.840897-13.667912-18.588361-20.775227-26.242392-2.733582 3.280299-7.107314 6.560598-13.121196 9.840897 7.107314 6.560598 13.667912 13.667912 19.135078 21.86866zM573.505606 185.268553v-84.194341c0-10.387613 0-20.775227 0.546716-31.709556h-16.948211v21.86866h-43.190603v-25.148959h-16.948212c0.546716 10.387613 0.546716 21.321943 0.546717 32.256273V185.268553c0 8.747464-0.546716 18.588361-0.546717 28.975974h77.087026c0-10.387613-0.546716-20.22851-0.546716-28.975974z m-16.401495-80.914042V201.67004799999995h-43.190603v-97.315537h43.190603zM478.376935 531.340096c-2.186866 10.93433-1.640149 21.321943 1.64015 30.069407 2.733582 8.747464 7.107314 16.948211 12.574479 24.055526 5.467165 7.107314 11.481046 13.667912 18.041645 19.681794 7.107314 6.013881 13.121196 12.027763 19.135077 18.041645s10.93433 12.027763 14.761346 18.041644c3.827015 6.013881 6.013881 12.574479 6.013881 19.681794 0 12.027763-3.827015 21.321943-12.027763 28.429258-8.200747 7.107314-19.135077 10.93433-33.349706 10.93433-11.481046 0-21.86866-2.186866-31.162841-7.107315-9.29418-4.373732-18.041644-10.93433-26.242391-18.588361L416.597971 704.649226c11.481046 12.574479 25.148959 22.415376 40.457021 30.616124 15.308062 7.654031 32.80299 12.027763 52.484784 12.027763 13.667912 0 26.789108-1.640149 38.270155-4.920449 12.027763-3.280299 21.86866-8.747464 30.616123-15.308062 8.747464-6.560598 15.308062-14.761345 19.681794-24.602242 4.920448-9.840897 7.107314-20.775227 7.107315-33.896423 0-10.387613-2.186866-19.681794-6.013882-27.882541-4.373732-8.200747-9.29418-15.854778-15.308062-22.415377-6.013881-6.560598-13.121196-13.121196-19.681793-19.681794-7.107314-6.013881-13.121196-12.574479-19.135078-19.135077-5.467165-6.560598-9.840897-13.667912-13.667912-21.321944-3.280299-7.654031-4.373732-16.401495-3.280299-26.242391h-49.751202z m-15.308062-82.007475c0 13.121196 3.827015 23.508809 12.57448 31.709557 8.200747 7.654031 18.588361 12.027763 30.616124 12.027763 12.027763 0 22.415376-3.827015 30.616124-12.027763 8.200747-7.654031 12.574479-18.588361 12.574479-31.709557 0-13.667912-4.373732-24.055526-12.574479-32.256273-8.200747-8.200747-18.588361-12.027763-30.616124-12.027763-12.027763 0-22.415376 3.827015-30.616124 12.027763-8.200747 8.200747-12.574479 19.135077-12.57448 32.256273z"  horiz-adv-x="1024" />

    
    <glyph glyph-name="Reback" unicode="&#58907;" d="M512-128C229.233-128 0 101.23299999999995 0 384S229.233 896 512 896s512-229.233 512-512-229.233-512-512-512zM81.92 384L512-46.08000000000004V384H81.92zM515.154 817.234v-430.08h430.08l-430.08 430.08z"  horiz-adv-x="1024" />

    
    <glyph glyph-name="Recycle" unicode="&#58906;" d="M886.986096 565.295539H138.037757c-19.709167 0-31.483474-11.774307-27.644026-31.483474l1.535779-626.086001A32.251364 32.251364 0 0 1 143.412984-127.85282099999995h730.263025a32.251364 32.251364 0 0 1 35.322922 31.483474l1.53578 626.086a25.596321 25.596321 0 0 1-23.548615 35.578886zM486.403679 40.31500500000004h-99.05776a56.311905 56.311905 0 0 0-34.299069 15.357792L295.967055 128.11038399999995a52.72842 52.72842 0 0 0-7.678896 34.810996l7.678896 19.453204c3.839448 7.678896 0 23.292652-11.518345 23.292651a53.49631 53.49631 0 0 1-22.780725 7.678896q-11.518344 5.887154 0 11.518345l79.86052 15.357792c7.678896 3.839448 22.780725-3.839448 30.459622-11.518344 11.518344-19.453204 34.29907-46.32934 45.817413-65.782544 7.678896-7.678896 3.839448-11.518344-7.678896-7.678896l-15.101829 3.839448c-7.678896 3.839448-18.941277 7.678896-22.780725 0a153.577923 153.577923 0 0 1 7.678896-23.292652l7.678896-7.678896a56.311905 56.311905 0 0 1 34.29907-15.357792h60.919243a18.173388 18.173388 0 0 0 18.941277-19.453204c3.839448 3.839448 3.839448-34.810996 3.839448-34.810996a18.173388 18.173388 0 0 0-19.197241-18.173387z m30.459622 281.559526l18.941277 7.678896c7.678896 7.678896 15.101829 11.518344 15.101829 15.357792a31.739437 31.739437 0 0 1-22.780725 7.678896h-7.678896a67.830249 67.830249 0 0 1-34.29907-15.613755l-41.722002-45.049524a23.292652 23.292652 0 0 0-25.596321-3.839449l-30.459621 23.292652a24.060541 24.060541 0 0 0-4.351375 27.1321l60.919243 76.788961a52.472457 52.472457 0 0 0 37.626591 19.96513h91.378865a28.667879 28.667879 0 0 0 25.59632-19.453203l7.678896-19.453204a33.275217 33.275217 0 0 1 30.459622-7.678896l22.780725 11.518344c7.678896 7.678896 11.518344 0 7.678896-7.678896l-40.954113-73.46144a46.841267 46.841267 0 0 0-30.459621-15.357792 559.79153 559.79153 0 0 0-79.86052 7.678896c-7.678896 3.839448-11.518344 11.518344 0 11.518344zM745.18248 128.11038399999995l-49.400899-76.788961a46.841267 46.841267 0 0 0-30.459621-15.357793h-22.780725a21.500909 21.500909 0 0 1-22.780726-19.453203 51.192641 51.192641 0 0 0-3.839448-23.292652c0-11.518344-7.678896-11.518344-11.518344-3.839448l-38.138517 69.621992c-7.678896 7.678896-3.839448 23.292652 3.839448 34.810996a743.573111 743.573111 0 0 0 49.400898 65.782543c7.678896 7.678896 11.518344 7.678896 7.678896-3.839448v-23.292651c0-11.518344 0-19.453204 7.678897-23.292652 3.839448 0 11.518344 7.678896 15.357792 15.357792l3.839448 7.678896a43.257782 43.257782 0 0 1 3.839448 38.650444l-22.780725 61.943096c-3.839448 7.678896 3.839448 23.292652 11.518344 23.292652l38.138518 11.518344c7.678896 3.839448 22.780725-3.839448 22.780725-11.518344l30.459621-92.914644a29.947695 29.947695 0 0 0 7.16697-35.066959zM901.064072 768.018397h-62.710985a16.893572 16.893572 0 0 0-15.869719 15.869719v33.275217A79.09263 79.09263 0 0 1 743.646701 896H285.2166a79.09263 79.09263 0 0 1-78.580704-78.836667v-27.388063a16.893572 16.893572 0 0 0-15.869719-15.869719H123.703818a79.09263 79.09263 0 0 1-78.580704-78.836667v-59.127501c-3.839448-15.869719 3.839448-23.548615 11.774307-23.548614h903.550115a18.685314 18.685314 0 0 1 19.709166 19.709166V691.229436a79.09263 79.09263 0 0 1-78.836667 78.836667z m-145.643064 15.869719a16.893572 16.893572 0 0 0-15.869718-15.869719H281.633115a16.893572 16.893572 0 0 0-15.869718 15.869719v33.275217a16.893572 16.893572 0 0 0 15.869718 15.869718h458.174138a16.893572 16.893572 0 0 0 15.869718-15.869718z"  horiz-adv-x="1024" />

    
    <glyph glyph-name="Bug" unicode="&#58904;" d="M1021.632671 311.288772c0-11.280461-4.042431-21.051002-12.127294-29.311622-8.076874-8.252632-17.64769-12.382942-28.69647-12.382942h-142.899152c0-74.265697-14.244378-137.234955-42.741123-188.899785l132.689217-136.16443c8.076874-8.260621 12.119305-18.031162 12.119305-29.319611 0-11.280461-4.042431-21.051002-12.119305-29.303633-7.653457-8.252632-17.216284-12.382942-28.704459-12.382943-11.488175 0-21.051002 4.13031-28.704459 12.382943l-126.313998 128.327225a123.749531 123.749531 0 0 0-9.554838-8.468335c-4.250145-3.467224-13.181842-9.650706-26.7871-18.550446a400.280602 400.280602 0 0 0-41.478862-23.759271c-14.044653-6.950426-31.47664-13.245754-52.295961-18.885984-20.82731-5.64023-41.454895-8.468335-61.898733-8.468334V519.793551H470.471911v-583.691947c-21.69811 0-43.276386 2.931961-64.758793 8.803872-21.474418 5.863922-39.968942 13.030051-55.483569 21.506374a533.417202 533.417202 0 0 0-42.086026 25.397015c-12.550711 8.444368-21.809956 15.49865-27.769746 21.170837L270.826928 22.11112300000002l-116.727205-134.830267c-8.516269-9.107454-18.726204-13.66917-30.621817-13.669171-10.201947 0-19.349346 3.467224-27.434209 10.41765-8.084863 7.813237-12.438865 17.471932-13.062007 28.976084-0.631131 11.504153 2.660335 21.610231 9.874398 30.310247l128.854499 147.876296c-24.662027 49.507802-36.989047 109.001847-36.989046 178.490125H41.822388c-11.04878 0-20.611607 4.13031-28.696469 12.382942S0.998624 300.088202 0.998624 311.37665100000004c0 11.280461 4.042431 21.051002 12.127295 29.303634 8.084863 8.260621 17.655679 12.382942 28.696469 12.382942h142.899153V544.59938L74.361565 657.292143c-8.084863 8.252632-12.119305 18.023173-12.119306 29.311622 0 11.280461 4.034442 21.051002 12.119306 29.303634 8.084863 8.260621 17.655679 12.382942 28.704459 12.382942s20.611607-4.122321 28.704458-12.382942l110.351987-112.692763h538.426302l110.359976 112.692763c8.084863 8.260621 17.655679 12.382942 28.69647 12.382942 11.056769 0 20.619596-4.122321 28.704459-12.382942 8.084863-8.252632 12.127294-18.023173 12.127294-29.303634 0-11.28845-4.042431-21.058991-12.127294-29.319611l-110.359976-112.684774v-191.536153h142.899152c11.04878 0 20.611607-4.122321 28.704459-12.382942 8.076874-8.252632 12.119305-18.023173 12.119305-29.303634l-0.039945-0.07989zM715.430474 686.515886H307.160877c0 57.760433 19.884608 106.940686 59.645836 147.548748C406.57593 874.672695 454.733591 894.972731 511.295675 894.972731c56.562084 0 104.719746-20.300036 144.488963-60.908097 39.761228-40.608061 59.645836-89.796303 59.645836-147.548748z"  horiz-adv-x="1024" />

    
    <glyph glyph-name="Monitor" unicode="&#58903;" d="M926.15111111 877.08444479H97.84888925c-50.06222187 0-86.47111147-40.96-86.47111147-86.47111146v-564.33777814c0-50.06222187 40.96-86.47111147 86.47111147-86.4711104H489.24444445V30.577778129999956H375.46666631c-36.40888853 0-68.26666667-31.85777813-68.26666666-68.26666667S339.05777778-105.95555521000006 375.46666631-105.95555521000006h318.57777814c36.40888853 0 68.26666667 31.85777813 68.26666666 68.26666667s-31.85777813 68.26666667-68.26666666 68.26666667H580.26666631v109.22666666h345.8844448c50.06222187 0 86.47111147 40.96 86.47111147 86.4711104V790.61333333c0 50.06222187-40.96 86.47111147-86.47111147 86.47111146z m-27.30666666-427.8044448h-250.31111147l-59.16444373-177.49333333-182.0444448 273.06666667-31.85777814-95.57333334H125.15555591V517.54666666h204.8l59.16444374 177.49333333 182.0444448-273.06666666 31.85777813 95.57333333H898.84444445v-68.26666667z"  horiz-adv-x="1024" />

    
    <glyph glyph-name="LastPoint" unicode="&#58951;" d="M1023.7184 420.608h-74.9312A438.0928 438.0928 0 0 1 548.5568 820.736V895.744h-73.1136v-75.008A438.0928 438.0928 0 0 1 75.2128 420.608H0.2816v-73.216h74.9312a438.0928 438.0928 0 0 1 400.2304-400.128v-75.008h73.1136v75.008a438.0928 438.0928 0 0 1 400.2304 400.128h74.9312v73.216zM512 18.432000000000016A365.568 365.568 0 1 0 877.5168 384 365.44 365.44 0 0 0 512 18.432000000000016zM658.2016 384A146.2016 146.2016 0 1 0 512 530.1759999999999 146.6368 146.6368 0 0 0 658.2016 384z m0 0"  horiz-adv-x="1024" />

    
    <glyph glyph-name="ArrowLeft" unicode="&#58902;" d="M512.568889-128l80.213333 80.497778L217.884444 327.11111099000004 1024 327.11111100000005l0 113.777778L217.884444 440.88888901 592.782222 815.502222 512.568889 896 0 384l512.568889-512z"  horiz-adv-x="1024" />

    
    <glyph glyph-name="ArrowRight" unicode="&#59267;" d="M511.431111 896l-80.213333-80.497778L806.115556 440.88888901 0 440.888889l0-113.777778L806.115556 327.11111099000004 431.217778-47.50222199999996 511.431111-128 1024 384l-512.568889 512z"  horiz-adv-x="1024" />

    
    <glyph glyph-name="Question" unicode="&#58901;" d="M486.40896-128a102.4 102.4 0 1 0 0 204.8 102.4 102.4 0 0 0 0-204.8z m325.376 635.904c-22.272-35.9424-69.4272-84.7872-141.824-146.7392-37.4784-31.9488-60.7744-57.7536-69.7856-77.312-9.0112-19.456-13.312-54.3232-12.3904-104.6528H426.35136c-0.3584 23.808-0.7168 38.3488-0.7168 43.5712 0 53.76 8.704 97.8944 25.9584 132.608 17.3056 34.6624 51.9168 73.728 103.68 116.9408 51.7632 43.4176 82.8416 71.7312 92.928 85.1456 15.5648 21.248 23.5008 44.6976 23.5008 70.144 0 35.3792-13.9776 65.7408-41.472 91.136-27.5968 25.2416-65.024 37.9904-111.872 37.9904-45.2096 0-82.9952-13.312-113.3568-39.6288-30.4128-26.3168-56.576-84.48-62.72-120.3712-5.8368-33.9968-165.0176-48.3328-163.072 20.48 1.9456 68.864 36.7616 143.4624 96.4608 197.632C335.36896 868.864 413.80736 896 510.78016 896c102.0928 0 183.1936-27.4432 243.6096-82.2784C814.80576 758.9376 844.80896 695.1424 844.80896 622.336a213.504 213.504 0 0 0-33.024-114.432z"  horiz-adv-x="1024" />

    
    <glyph glyph-name="Sort" unicode="&#58947;" d="M178.685 486.399h682.672L520.02 896 178.685 486.399z m0 0M861.357 281.602H178.685L520.021-128l341.336 409.602z m0 0"  horiz-adv-x="1052" />

    
    <glyph glyph-name="Tip" unicode="&#58937;" d="M319.378286 231.75314300000002c-106.422857 59.977143-177.408 169.142857-177.408 293.851428C142.08 715.044571 305.700571 868.571429 507.757714 868.571429c202.020571 0 365.641143-153.526857 365.641143-342.857143 0-124.708571-71.058286-233.947429-177.371428-293.851429-5.924571-30.72-20.224-58.514286-40.667429-81.590857H360.009143a173.129143 173.129143 0 0 0-40.630857 81.481143z m449.609143 261.266286c0.877714 143.323429-116.114286 260.205714-261.229715 261.156571-23.149714 0-34.852571-10.971429-34.852571-32.548571 0-5.412571 11.702857-16.274286 34.852571-16.274286 111.469714 0 209.005714-91.501714 209.005715-212.333714 0-5.376 11.702857-16.347429 34.742857-16.347429 5.778286 0 17.481143 10.971429 17.481143 16.347429zM350.976 68.64457100000004c0 17.956571 15.579429 32.475429 34.742857 32.475429h243.931429c19.273143 0 34.742857-14.409143 34.742857-32.475429s-15.579429-32.658286-34.742857-32.658285H385.828571a33.828571 33.828571 0 0 0-34.852571 32.658285z m297.179429-81.810285c-25.6-48.274286-78.921143-81.590857-140.434286-81.590857a157.988571 157.988571 0 0 0-140.397714 81.590857h280.832z"  horiz-adv-x="1024" />

    
    <glyph glyph-name="Random" unicode="&#58899;" d="M341.315 343.222c23.884-33.205 49.516-68.74 80.974-102.527-72.236-83.303-189.326-182.336-396.129-182.336v151.461c164.277 0 242.337 77.478 300.592 153.209 5.243-6.407 9.903-12.816 14.563-19.807zM503.262 459.148c14.563-20.389 28.545-40.195 43.108-57.671 50.098 55.342 124.665 135.15 244.668 142.723l-36.7-93.206c-1.747-4.078 0-8.156 2.913-10.485 1.747-1.165 3.495-1.747 5.825-1.747 1.747 0 4.078 0.582 5.825 1.747l226.027 174.18c2.331 1.747 3.495 4.66 3.495 7.573s-1.165 5.825-3.495 7.573l-226.609 173.015c-3.495 2.331-8.156 2.331-11.069 0-3.495-2.331-4.66-6.991-2.913-10.485l37.866-96.119c-162.529-8.738-269.717-105.44-337.292-171.85 17.476-22.137 33.788-44.273 48.351-65.245zM779.969 344.97c-1.747 1.165-3.495 1.747-5.825 1.747-1.747 0-4.078-0.582-5.825-1.747-3.495-2.331-4.66-6.991-2.913-10.485l36.7-93.206c-171.85 11.069-249.328 110.1-316.903 204.473-76.896 107.188-184.666 264.475-459.043 264.475v-151.461c196.899 0 265.057-101.945 336.127-200.977 74.565-103.693 189.326-254.571 440.985-267.969l-37.866-96.119c-1.747-4.078 0-8.156 2.913-10.485 3.495-2.331 8.156-2.331 11.069 0l226.027 174.18c2.331 1.747 3.495 4.66 3.495 7.573s-1.165 5.825-3.495 7.573l-225.444 172.432z"  horiz-adv-x="1024" />

    
    <glyph glyph-name="Download2" unicode="&#58898;" d="M554.656 59.74400000000003v409.6h-85.344v-409.6l-98.144 98.144-59.744-59.744 200.544-200.544 200.544 200.544-59.744 59.744zM806.4 640c-21.344 145.056-145.056 256-294.4 256S234.656 785.056 217.6 640C93.856 631.456 0 529.056 0 405.344c0-128 106.656-234.656 234.656-234.656h64v85.344h-64c-85.344 0-149.344 64-149.344 149.344s64 149.344 149.344 149.344h4.256l59.744-29.856V597.408c0 119.456 93.856 213.344 213.344 213.344s213.344-93.856 213.344-213.344v-72.544l59.744 29.856h4.256c85.344 0 149.344-64 149.344-149.344s-64-149.344-149.344-149.344h-64v-85.344h64c128 0 234.656 106.656 234.656 234.656 0 123.744-93.856 226.144-217.6 234.656z"  horiz-adv-x="1024" />

    
    <glyph glyph-name="Download" unicode="&#59053;" d="M365.614002 798.980339l292.435329 0 0-77.896114-292.435329 0 0 77.896114ZM365.614002 875.187999l292.435329 0 0-40.633443-292.435329 0 0 40.633443ZM936.399873 224.85132699999997L901.666814 30.893869999999993 121.931027 30.893869999999993 87.231737 224.85132699999997 0.496304 224.85132699999997 0.496304-84.29459199999997 1023.977487-84.29459199999997 1023.977487 224.85132699999997ZM914.913513 570.354292L658.049331 570.354292 658.049331 682.105468 365.614002 682.105468 365.614002 569.478342 111.998817 569.478342 510.971577 132.52352499999995Z"  horiz-adv-x="1024" />

    
    <glyph glyph-name="Fixed" unicode="&#58910;" d="M256.9863168 184.24756652999997L14.31735056 441.49821187 244.3930485 384.33140179 614.56885634 727.49796314 614.56885634 880.02564044 1010.09690169 479.69226905 834.2882481 489.22007072 517.71668101 98.49735142999998 555.41363547-111.27998639999998 322.18962046 126.99790601999996 19.86833067-110.53433236000001 256.9863168 184.24756652999997Z"  horiz-adv-x="1024" />

    
    <glyph glyph-name="UnFixed" unicode="&#59266;" d="M472.92439557 147.76512836999996L119.42784818 158.07593254000005 322.53897345 280.34097968000003 341.63739479 784.75020624 233.78403986 892.60356117 796.54304453 889.20568254 665.49038019 771.62736456 717.92316276 271.49477837999996 892.91391301 149.81557239000006 559.51171693 153.38920338000003 513.69893933-228.34488725000006 472.92439557 147.76512836999996Z"  horiz-adv-x="1024" />

    
    <glyph glyph-name="Refresh" unicode="&#58928;" d="M63.888 310.413714L320 310.85714299999995c-52.48-47.929143-57.948571-54.594286-107.292571-99.686857C268.259429 102.952 403.136 7.005714000000012 541.824 19.428571000000034 703.104 33.806857000000036 837.147429 124.06857100000002 876.571429 312l147.428571-1.142857c-11.392-150.661714-134.912-339.264-334.144-407.059429C450.816-177.55428600000005 257.472-98.354286 96 90.52342899999996c-28.928-25.982857-63.168-64.914286-96-94.428572V247.46171400000003c0 34.724571 28.585143 62.891429 63.888 62.952zM960.112 457.586286L704 457.142857c52.48 47.929143 57.948571 54.594286 107.292571 99.686857C755.740571 665.048 620.864 760.994286 482.176 748.571429 320.896 734.193143 186.852571 643.931429 147.428571 456L0 457.142857C11.392 607.804571 134.912 796.406857 334.144 864.202286 573.184 945.554286 766.528 866.354286 928 677.476571c28.928 25.982857 63.168 64.914286 96 94.428572v-251.366857c0-34.724571-28.585143-62.891429-63.888-62.952z"  horiz-adv-x="1024" />

    
    <glyph glyph-name="TopBottom" unicode="&#58933;" d="M808.406992 178.18481599999996a13.09053 13.09053 0 0 1-3.900444 9.28359l-40.206626 40.206627a13.130603 13.130603 0 0 1-18.56718 0L554.904879 29.35350900000003V737.8049570000001l190.053117-197.426559a13.130603 13.130603 0 0 1 18.553822 0l40.206627 40.206627a13.130603 13.130603 0 0 1 0 18.56718L561.142917 851.118184c-0.240438 0.293869-0.494234 0.57438-0.774746 0.854892l-1.335768 1.335768-37.401513 38.857501a15.040751 15.040751 0 0 1-20.036525 0l-38.737282-40.206627c-0.253796-0.267154-0.494234-0.534307-0.721315-0.801461L219.440021 599.125489a13.077172 13.077172 0 0 1-3.847013-9.256874 13.09053 13.09053 0 0 1 3.847013-9.256875l40.206627-40.206627a13.130603 13.130603 0 0 1 18.567179 0l190.934725 198.254736v-708.438091L279.095434 227.64831700000002a13.130603 13.130603 0 0 1-18.553822 0L220.321628 187.46840599999996a13.130603 13.130603 0 0 1 0-18.56718l242.588886-252.006053c0.240438-0.293869 0.494234-0.57438 0.774746-0.854891l1.335768-1.335769 37.401513-38.8575a15.040751 15.040751 0 0 1 20.036525 0l38.737282 40.206626c0.253796 0.267154 0.494234 0.534307 0.721314 0.801461l242.588886 252.032769a13.077172 13.077172 0 0 1 3.847013 9.256874z m-336.613619 633.154187z"  horiz-adv-x="1024" />

    
    <glyph glyph-name="LeftRight" unicode="&#59265;" d="M319.048265 106.11844499999995a12.27237187 12.27237187 0 0 1 8.70336563 3.65666625l37.69371281 37.69371188a12.30994031 12.30994031 0 0 1 0 17.40673124L179.5189147 343.77667594 843.69214719 343.77667594l-185.08739907-178.17479718a12.30994031 12.30994031 0 0 1 0-17.39420813l37.69371282-37.69371282a12.30994031 12.30994031 0 0 1 17.40673125 0L949.9232975 337.92851530999997c0.27550219 0.22541063 0.53848125 0.46334438 0.80146125 0.72632438l1.2522825 1.2522825 36.42890719 35.06391844a14.10070406 14.10070406 0 0 1 0 18.78424218l-37.69371281 36.31620188c-0.25045688 0.23793375-0.50091281 0.46334438-0.75136969 0.67623281L713.68014594 658.27498031a12.25984875 12.25984875 0 0 1-8.67831938 3.60657468 12.27237187 12.27237187 0 0 1-8.67832031-3.60657468l-37.69371281-37.6937128a12.30994031 12.30994031 0 0 1 0-17.40673031l185.863815-179.0013047-664.16071031 0L365.42029719 602.3480306199999a12.30994031 12.30994031 0 0 1 0 17.39420813L327.75163062 657.44847374a12.30994031 12.30994031 0 0 1-17.40673124 0l-236.25567469-227.42708062c-0.27550219-0.22541063-0.53848125-0.46334438-0.80146032-0.72632436l-1.25228343-1.25228251-36.42890625-35.06391843a14.10070406 14.10070406 0 0 1 0-18.78424219l37.69371187-36.31620189c0.25045688-0.23793375 0.50091281-0.46334438 0.75136969-0.67623186l236.28072094-227.42708063a12.25984875 12.25984875 0 0 1 8.67831938-3.60657469z m593.58205031 315.57526781z"  horiz-adv-x="1024" />

    
    <glyph glyph-name="ZoomOut" unicode="&#58897;" d="M439.125333 106.66666699999996M462.208 682.666667L384 682.666667 384 512 213.333333 512 213.333333 426.666667 384 426.666667 384 256 462.208 256 462.208 426.666667 640 426.666667 640 512 462.208 512ZM893.653333 40.32000000000005l-177.365333 177.365333C774.912 285.098667 810.666667 372.949333 810.666667 469.333333c0 212.096-171.904 384-384 384s-384-171.904-384-384 171.904-384 384-384c73.216 0 141.397333 20.864 199.594667 56.405333L810.666667-42.66666699999996c0 0 42.666667-42.666667 85.333333 0S893.653333 40.32000000000005 893.653333 40.32000000000005zM126.677333 467.114667C126.677333 633.301333 261.376 768 427.562667 768s300.885333-134.698667 300.885333-300.885333-134.698667-300.885333-300.885333-300.885333S126.677333 300.928 126.677333 467.114667z"  horiz-adv-x="1024" />

    
    <glyph glyph-name="ZoomIn" unicode="&#58895;" d="M426.656 832q78.016 0 149.152-30.496t122.496-81.824 81.824-122.496 30.496-149.152q0-67.008-21.824-128.32t-62.176-111.328l242.336-242.016q12.32-12.32 12.32-30.336 0-18.336-12.16-30.496t-30.496-12.16q-18.016 0-30.336 12.32l-242.016 242.336q-50.016-40.32-111.328-62.176t-128.32-21.824q-78.016 0-149.152 30.496t-122.496 81.824-81.824 122.496-30.496 149.152 30.496 149.152 81.824 122.496 122.496 81.824 149.152 30.496zM426.656 746.656q-60.672 0-116-23.68t-95.328-63.68-63.68-95.328-23.68-116 23.68-116 63.68-95.328 95.328-63.68 116-23.68 116 23.68 95.328 63.68 63.68 95.328 23.68 116-23.68 116-63.68 95.328-95.328 63.68-116 23.68zM298.656 490.656l256 0q17.664 0 30.176-12.512t12.512-30.176-12.512-30.176-30.176-12.512l-256 0q-17.664 0-30.176 12.512t-12.512 30.176 12.512 30.176 30.176 12.512z"  horiz-adv-x="1024" />

    
    <glyph glyph-name="OneOne" unicode="&#58923;" d="M335.308277 803.146219v-838.291415H240.726132V670.87059L65.509505 593.0000580000001v95.626941l261.110902 114.518197h8.68787z m0 0M481.175459 558.884053v-115.881241h115.881241V558.884053H481.175459z m0-395.388119h115.881241V279.378198H481.175459v-115.882264z m15.998369-182.66425M958.501752 804.851047v-838.291414H863.919607V672.5764409999999l-175.217651-77.870532V690.33285L949.813882 804.851047h8.68787z m0 0"  horiz-adv-x="1024" />

    
    <glyph glyph-name="Around" unicode="&#58983;" d="M697.344 153.08799999999997c-111.616-111.616-326.656-119.808-447.488 0.512s-120.832 327.68-0.512 448 326.656 119.808 447.488-0.512L619.52 523.264 920.576 445.44l-69.12 309.76-77.312-77.312c-168.448 168.448-435.2 168.448-602.624 1.024S4.608 244.736 172.544 76.79999999999995s413.184-189.952 602.624-1.024l-77.824 77.312z"  horiz-adv-x="1024" />

    
    <glyph glyph-name="Plus" unicode="&#58894;" d="M949.18462686 317.99182762h-371.59356949v-371.65283784c0-36.21743742-29.37361994-65.56198232-65.59217564-65.56198234-36.21743742 0-65.59105737 29.34454489-65.59105736 65.56198234v371.65283784h-371.59580604c-36.24763074 0-65.59105737 29.34454489-65.59105738 65.56198231 0 36.20401817 29.34678144 65.56198232 65.59105738 65.56198232h371.59356949v371.65283786c0 36.20401817 29.37361994 65.56198232 65.59105737 65.56198233 36.21855569 0 65.59217563-29.35908242 65.59217564-65.56198233v-371.65395612h371.59356949c36.24763074 0 65.59217563-29.35684588 65.59217563-65.55974578-0.00111827-36.21743742-29.34454489-65.55974578-65.59217563-65.55974578z"  horiz-adv-x="1024" />

    
    <glyph glyph-name="Eye" unicode="&#58954;" d="M512 741.1484444499999C147.56977778 741.1484444499999 1.82044445 384 1.82044445 384S147.56977778 26.851555549999944 512 26.851555549999944c364.43022222 0 510.17955555 357.14844445 510.17955555 357.14844445S876.43022222 741.1484444499999 512 741.1484444499999z m0-571.392c-120.71822222 0-218.56711111 95.91466667-218.56711111 214.24355555 0 118.32888889 97.96266667 214.24355555 218.56711111 214.24355555 120.71822222 0 218.68088889-95.91466667 218.68088889-214.24355555 0-118.32888889-97.96266667-214.24355555-218.68088889-214.24355555zM621.34044445 384c0-59.16444445-48.92444445-107.17866667-109.34044445-107.17866667-60.30222222 0-109.34044445 48.01422222-109.34044445 107.17866667s48.92444445 107.17866667 109.34044445 107.17866667c60.30222222 0 109.34044445-48.01422222 109.34044445-107.17866667z m0 0"  horiz-adv-x="1024" />

    
    <glyph glyph-name="ExcelImport" unicode="&#58920;" d="M1024-29.696000000000026h-340.992V86.01599999999996H911.36V697.344h-228.352v112.64H1024v-839.68zM542.72 465.92h268.288v-151.552H542.72V465.92zM607.232 176.12800000000004l-179.2 212.992 179.2 216.064v-429.056zM531.456 885.76L0 751.616v-720.896l531.456-136.192v266.24l-202.752 224.256 202.752 236.544V885.76z m-288.768-486.4l132.096-241.664-108.544 27.648-70.656 128-52.224-96.256-88.064 22.528 91.136 163.84-88.064 158.72 82.944 20.48 51.2-94.208 69.632 124.928 113.664 28.672-133.12-242.688z"  horiz-adv-x="1024" />

    
    <glyph glyph-name="ExcelModule" unicode="&#58893;" d="M897.911467 451.606756h54.840889v-444.393245h-54.840889v-95.527822c0-17.521778-12.288-31.744-27.4432-31.744H157.468444c-15.1552 0-27.420444 14.199467-27.420444 31.744v95.527822H75.184356v444.416h54.840888V863.937422c0 17.521778 12.288 31.721244 27.420445 31.721245h532.024889l208.440889-241.231645v-202.843022zM184.866133 7.2135110000000395v-63.488h658.181689v63.488H184.866133z m0 444.416h658.181689v158.697245h-191.965866V832.512H184.866133v-380.905244z m155.420445-330.456178v22.869334H261.370311v63.488h68.1984v21.890844H261.370311v61.576533h74.820267v22.209423h-98.531556v-192.034134h102.627556z m136.419555 137.124978H450.787556l-35.362134-56.820622-5.688889 10.808889-25.577244 46.011733h-28.103111l46.421333-70.155378-46.421333-67.288177h27.170133l26.510222 43.804444c2.298311 3.4816 4.414578 7.076978 6.326045 10.786133l5.984711-10.786133 25.895822-43.463111h28.103111l-45.147022 67.902578 45.784178 69.199644z m116.827023-131.072l-2.525867 22.528c-9.489067-7.463822-21.117156-11.605333-33.154845-11.764622a42.825956 42.825956 0 0 0-31.584711 13.334755 52.861156 52.861156 0 0 0-12.288 37.137067 55.409778 55.409778 0 0 0 13.880889 38.0928 43.463111 43.463111 0 0 0 33.769245 14.609067c11.423289-0.068267 22.505244-3.868444 31.584711-10.786134v24.120889a70.724267 70.724267 0 0 1-31.584711 6.667378 68.016356 68.016356 0 0 1-52.110223-20.639289 76.094578 76.094578 0 0 1-19.569777-54.272c-0.750933-18.249956 5.711644-36.067556 17.999644-49.516089 12.515556-12.856889 29.809778-19.774578 47.695645-19.0464a71.998578 71.998578 0 0 1 37.888 9.511823z m143.655822 56.160711l-0.318578 13.016178c1.092267 17.521778-4.323556 34.816-15.1552 48.560356a52.588089 52.588089 0 0 1-41.665422 17.157688 57.9584 57.9584 0 0 1-45.169778-20.320711 75.1616 75.1616 0 0 1-18.295467-52.064711 76.458667 76.458667 0 0 1 16.725334-52.360533c11.377778-12.856889 27.761778-20.024889 44.828444-19.683556a80.827733 80.827733 0 0 1 47.695645 12.6976v21.572267a67.356444 67.356444 0 0 0-42.006756-14.586311 41.551644 41.551644 0 0 0-31.561956 12.060444 49.379556 49.379556 0 0 0-12.014933 33.951289h96.938667z m31.903289-62.532266l24.302933 0.637155v202.843022h-24.302933v-203.480177z m-56.206223 81.92a43.645156 43.645156 0 0 1-9.466311 29.809777 31.493689 31.493689 0 0 1-24.325689 10.171734 33.700978 33.700978 0 0 1-24.940088-10.808889c-7.327289-7.736889-11.969422-17.635556-13.266489-28.239645l71.998577-0.955733z"  horiz-adv-x="1024" />

    
    <glyph glyph-name="Power" unicode="&#58892;" d="M918.11809156 678.88390875c0 0-84.11001375 5.41552781-128.08276031 45.49427531-45.96339657 41.98209657-51.87874594 118.68593062-51.87874594 118.68593063S623.86255719 863.67478031 507.57787813 863.67478031c-114.26524781 0-230.57870719-20.60970656-230.57870719-20.60970656s-7.75825969-77.14225781-51.37988438-116.98692281c-46.25695781-42.2449575-128.58066188-47.19328313-128.58066187-47.19328313s-8.81162531-150.420255 3.77599968-281.02130719c12.41302406-128.55284156 44.20682813-255.61197469 162.15981563-351.89997187 96.43573687-78.75300563 240.76699969-141.63836906 240.76699969-141.63836906s113.32796345 49.41801469 195.41854593 103.16845219c90.199005 59.25614437 175.04100187 140.14562156 201.00963563 294.16823437C927.63292062 464.58248531 918.11809156 678.88390875 918.11809156 678.88390875zM666.07969438 72.31116469000006c-54.50832375-35.65038938-125.66040187-69.07028999-151.68084001-80.90098875L514.39885344 387.20518687 171.56185719 387.20518687c-0.28972313 2.76004875-0.56793469 5.52201562-0.83463376 8.28494251-10.45115437 108.1752975-3.13323563 232.62883781-3.13323562 232.62883781s68.12629031 4.09834125 106.4484675 39.14242125c36.09648656 32.96421001 42.53755969 96.93267937 42.53755969 96.93267937s96.28991531 16.94978813 190.88082281 16.94978813c2.32546313 0 4.64804906-0.01247156 6.968715-0.03165844l0-393.90797062 327.1564275-0.5640975c-2.278455-24.07967437-5.23900781-48.00585188-9.06969094-70.72324969C811.0259 188.45002312999998 740.76217906 121.35023624999997 666.07969438 72.31116469000006z"  horiz-adv-x="1024" />

    
    <glyph glyph-name="See" unicode="&#58900;" d="M780.20687999 250.00333970999998c-31.40657092 0-56.9457934-26.13703618-56.94579337-58.26439357 0-32.12492201 25.54043896-58.25587097 56.94579337-58.25587216 31.41144045 0 56.96527389 26.13094899 56.96527274 58.25587216 0 32.12735737-25.55383226 58.26439356-56.96527274 58.26439357zM809.69947 368.9209511c-112.36843756 0-203.45175415-93.05452258-203.45175415-207.87631203 0-114.82666015 91.0833166-207.92744868 203.45175415-207.92744986 112.34652166 0 203.43227363 93.10200622 203.43227364 207.92744986 0 114.82666015-91.08575195 207.87631199-203.43227364 207.87631203z m97.9648806-330.08372959c-6.19486904 0-11.83575375 2.56658435-15.91087637 6.72206558l-65.91179343 67.37162917c-13.39786398-8.09058593-28.9495648-12.79639725-45.63358312-12.79639722-49.6892252 0-89.97413382 41.14205992-89.97413382 91.92707577 0 50.77284026 40.2861263 91.93925141 89.97413382 91.93925139 49.68678983 0 89.97169845-41.16641118 89.97169845-91.93925139 0-17.03467128-4.62058314-32.94311227-12.53219014-46.63197001l65.92518677-67.35093098a23.26606601 23.26606601 0 0 0 6.59422329-16.27005306c0-12.70021113-10.06787911-22.97141926-22.50266545-22.97141925zM533.3447802 166.53576564000002c0 143.17475819 114.18257929 259.64023422 254.53141437 259.64023422 22.35290731 0 44.50978937-2.96593981 65.97388926-8.82720105l-1.70699889 389.17727132c0 21.80379371-24.91949167 47.59626536-45.9550141 47.59626656H62.33875067c-21.05013342 0-45.96232021-25.79247164-45.96232021-47.59626656v-834.72687119c0-22.17027537 24.20114057-54.88205434 45.96232021-54.88205433h655.22422616c-106.26123205 31.21054564-184.21819664 131.30491294-184.21819663 249.61862103zM191.92814214 641.19321225h485.70788393c19.57812208 0 35.44638434-15.86704576 35.4463855-35.44029711 0-19.57446903-15.86826227-35.44395014-35.4463855-35.44394897H191.92814214c-19.5756867 0-35.44151478 15.86947993-35.44151476 35.44394897 0 19.57325136 15.86582808 35.44029708 35.44151476 35.44029711z m0-174.33538487h397.53328204c19.58055744 0 35.45369042-15.86704576 35.45369042-35.45125505 0-19.5756867-15.87313296-35.43786175-35.45369042-35.43786172H191.92814214c-19.5756867 0-35.44151478 15.86217501-35.44151476 35.43786172 0 19.58299278 15.86582808 35.45125503 35.44151476 35.45125505z m265.27990244-245.2378949H191.92814214c-19.5756867 0-35.44151478 15.86826227-35.44151476 35.44273244 0 19.57933975 15.86582808 35.44638434 35.44151476 35.44638431h265.27990244c19.5756867 0 35.43664405-15.86704576 35.43664404-35.44638431 0.00121768-19.57446903-15.86095735-35.44273245-35.43664404-35.44273244z"  horiz-adv-x="1024" />

    
    <glyph glyph-name="Info" unicode="&#58940;" d="M598.51264 767.55968c0 45.70624-38.7328 82.92864-86.51776 82.92864-47.68256 0-86.50752-37.13024-86.50752-82.92864 0-4.66944 0.39936-9.25184 1.17248-13.70112-119.46496-39.92064-217.47712-162.49344-217.47712-307.51744v-114.17088s0-164.43392-42.1376-165.8624c-25.12896 0-44.37504-18.57024-44.37504-41.47712 0-23.06048 19.36384-41.46688 43.24864-41.46688h692.16256c24.00256 0 43.24864 18.56 43.24864 41.46688 0 23.0656-19.35872 41.47712-43.24864 41.47712-43.25376 0-43.25376 164.69504-43.25376 164.69504V446.33088c0 145.20832-91.64288 267.83232-217.46688 307.62496 0.75264 4.4288 1.152 8.97024 1.152 13.60384z m43.264-725.5808c-0.128-68.77184-57.69216-124.47232-129.78176-124.47232-71.58784 0-129.64864 55.46496-129.78176 124.47232h259.56352z"  horiz-adv-x="1024" />

    
    <glyph glyph-name="Image" unicode="&#58886;" d="M186.629539 690.8507999999999v-634.257976c0-59.186883 11.50641-70.478269 67.676065-70.47827h766.985083c55.706921 0 67.676065 10.80801 67.676065 70.47827V690.8507999999999c0 57.791802-10.617068 70.474829-67.676065 70.474828H254.302164c-55.95635-0.00172-67.674345-10.085526-67.674345-70.474828h0.00172z m796.082247-540.288671h-689.369708c75.339551 114.405268 209.327563 305.147803 243.380621 305.147802 32.95557 0 144.823545-154.112619 195.354387-208.362531 0 0 64.989114 90.425695 99.040452 90.425695 34.730816-0.005161 150.464077-186.276898 151.594248-187.210966z m-202.565462 399.344174c0 47.923021 37.209622 86.672221 83.228384 86.672221 46.023922 0 83.231824-38.750921 83.231823-86.672221 0-47.91614-37.207902-86.670501-83.231823-86.670501-46.018761 0-83.228383 38.750921-83.228384 86.670501zM609.805349 803.840344l-131.940976 26.073055c-43.791103 8.654321-61.14619 5.5356-71.859589-26.073055h203.800565z m621.588711-122.839403l-103.275581 20.408439c0.044725-2.612982 0.063647-5.210482 0.063647-7.770138v-637.865233c0-29.596022-1.887058-63.096896-24.352856-86.023707-21.849966-22.305819-53.510227-24.175675-81.47034-24.175675h-62.27292l132.513802-26.190028c54.733289-10.81489 68.424352-2.523532 79.110227 56.097406l113.55893 623.13173c10.346996 56.782045 2.191533 71.302244-53.873189 82.380325v0.006881h-0.00172z"  horiz-adv-x="1448" />

    
    <glyph glyph-name="Error" unicode="&#58885;" d="M875.432137 747.432137C677.341654 945.522621 351.450858 945.522621 153.360374 747.432137c-198.090484-198.090484-198.090484-523.981279 0-722.071763 198.090484-198.090484 523.981279-198.090484 722.071763 0 198.090484 198.090484 198.090484 517.591264 0 722.071763z m-127.800312-511.201248c6.390016-6.390016 6.390016-25.560062 0-31.950078l-51.120125-51.120125c-6.390016-6.390016-25.560062-6.390016-31.950078 0L511.201248 293.74103l-146.970359-146.970359c-6.390016-6.390016-25.560062-6.390016-31.950078 0l-51.120125 51.120125c-12.780031 6.390016-12.780031 25.560062 0 31.950078L421.74103 383.20124799999996 274.770671 530.171607c-12.780031 6.390016-12.780031 25.560062 0 31.950078l51.120125 51.120125c12.780031 12.780031 25.560062 12.780031 31.950078 0L511.201248 472.661466l146.970359 146.970359c12.780031 12.780031 25.560062 12.780031 31.950078 0l51.120125-51.120125c6.390016-6.390016 6.390016-25.560062 0-31.950078L600.661466 383.20124799999996l146.970359-146.970359z"  horiz-adv-x="1025" />

    
    <glyph glyph-name="SessionOut" unicode="&#59076;" d="M530.3808 399.9744c88.5248 75.52 192.9216 108.1856 192.9216 223.8976C723.3024 776.704 610.9184 896 466.176 896c-144.896 0-257.1776-119.296-257.1776-272.0768 0-100.3008 45.7216-192.4096 121.3952-240.896C139.264 321.8944 0 93.69600000000003 0-128h578.7136c-166.4512 39.4752-269.3632 354.0992-48.3328 527.9744zM748.1856 425.984c-152.4224 0-275.9168-122.9824-275.9168-274.688s123.5456-274.688 275.9168-274.688S1024-0.4095999999999549 1024 151.29600000000005 900.608 425.984 748.1856 425.984z m169.9328-448.4096c-13.312-13.2096-35.8912-11.9808-50.688 2.7136l-118.3232 117.7088-118.1184-117.7088c-14.7968-14.6944-37.4784-15.9232-50.7904-2.7136-13.2096 13.2096-11.9808 35.7888 2.7136 50.4832l118.3232 117.7088-118.3232 117.7088c-14.6944 14.6944-15.9232 37.2224-2.7136 50.3808 13.312 13.2096 35.9936 12.0832 50.7904-2.6112l118.1184-117.7088 118.3232 117.7088c14.7968 14.6944 37.376 15.8208 50.688 2.6112s11.9808-35.6864-2.7136-50.3808l-118.2208-117.7088 118.2208-117.7088c14.6944-14.6432 15.9744-37.2736 2.7136-50.4832z"  horiz-adv-x="1024" />

    
    <glyph glyph-name="Close" unicode="&#58914;" d="M932.70781277 700.56796902L827.40078098 805.875 511.41640598 489.91171875 195.4671875 805.875 90.125 700.56796902 406.11640598 384.59765598 90.125 68.63437472999999 195.4671875-36.672656250000045 511.41640598 279.290625 827.40078098-36.672656250000045 932.70781277 68.63437472999999 616.75859348 384.59765598Z"  horiz-adv-x="1024" />

    
    <glyph glyph-name="Upload" unicode="&#58905;" d="M934.0256832 559.22783789C919.10024844 713.45318965 789.22038096 834 631.11764727 834 474.95360411 834 346.42833506 716.34879902 328.90555127 564.86992559 177.66280039 540.58657822 62 409.7622205 62 251.64705907999996c0-175.42667812 142.22038096-317.64705908 317.64705908-317.64705908h161.73156534V225.17647090000003H320.86495479l297.01739794 317.6470582 297.01739883-317.6470582H700.2021544v-291.1764709H882.58823545v1.36702529c163.01159912 13.44656162 291.1764709 149.78873232 291.17647002 316.28003379 0 148.50869942-102.04225313 272.78376153-239.73902227 307.58077881z"  horiz-adv-x="1264" />

    
    <glyph glyph-name="Folder" unicode="&#58884;" d="M0-14.222221999999988V782.222222h341.333333l113.777778-113.777778h455.111111v-113.777777H227.555556z m1024 455.111111l-227.555556-455.111111H0l284.444444 455.111111h739.555556z"  horiz-adv-x="1024" />

    
    <glyph glyph-name="Map" unicode="&#59018;" d="M229.12 675.52l-121.28-40.96A64 64 0 0 1 64 572.8v-623.04a32 32 0 0 1 42.24-32L352 1.919999999999959V352c-64 82.24-128 184.32-128 267.84a303.36 303.36 0 0 0 5.12 55.68zM917.76 704l-88.96-41.92a275.2 275.2 0 0 0 3.2-43.52c0-83.52-64-185.6-128-267.84V-96l212.16 82.56a64 64 0 0 1 43.84 62.4V672a32 32 0 0 1-42.24 32z m-345.6-499.52L528 161.91999999999996l-44.16 42.56c-16 15.68-56 55.36-99.84 106.88v-309.44l288-96V311.36a1638.208 1638.208 0 0 0-99.84-106.88zM768 618.56a167.36 167.36 0 0 1 0 21.44 238.72 238.72 0 0 1-465.92 60.16 237.44 237.44 0 0 1-14.08-81.6 321.6 321.6 0 0 1 64-157.76c9.92-15.68 20.8-32 32-45.44a1583.04 1583.04 0 0 1 144-163.84A1583.68 1583.68 0 0 1 672 416c11.2 15.04 22.08 29.76 32 45.44a321.6 321.6 0 0 1 64 157.12z m-240-77.44a81.92 81.92 0 0 0-50.88 144.32A77.12 77.12 0 0 0 528 704a80.32 80.32 0 0 0 77.76-64 76.8 76.8 0 0 0 2.24-19.2 80.64 80.64 0 0 0-80-79.36z"  horiz-adv-x="1024" />

    
    <glyph glyph-name="Login" unicode="&#59004;" d="M968.498523 231.92414599999995l-28.112018 0c0.1129 1.196736 0.338699 2.303153 0.338699 3.52247L940.725204 296.051158c0 77.404013-62.930276 140.356869-140.334289 140.356869-77.358853 0-140.311709-62.952856-140.311709-140.356869l0-60.604542c0-1.241896 0.248379-2.348313 0.361279-3.52247l-16.573671 0c-25.808864 0-46.785623-20.999338-46.785623-46.785623l0-223.157486c0-25.854024 20.999338-46.830783 46.785623-46.830783l324.654289 0c25.786284 0 46.785623 20.999338 46.785623 46.830783l0 223.157486C1015.284146 210.924807 994.262227 231.92414599999995 968.498523 231.92414599999995L968.498523 231.92414599999995zM731.702756 235.44661499999995L731.702756 296.051158c0 37.934289 30.79903 68.755899 68.665579 68.755899 37.889129 0 68.710739-30.82161 68.710739-68.755899l0-60.604542c0-1.241896 0.270959-2.348313 0.383859-3.52247L731.364057 231.92414599999995C731.454377 233.12088200000005 731.702756 234.20471899999995 731.702756 235.44661499999995L731.702756 235.44661499999995zM979.449791-38.01896399999998c0-6.096582-4.922426-10.973848-10.951268-10.973848L643.844234-48.99281099999996c-6.051422 0-10.973848 4.899846-10.973848 10.973848l0 223.157486c0 6.051422 4.945006 10.973848 10.973848 10.973848l324.654289 0c6.051422 0 10.951268-4.945006 10.951268-10.973848L979.449791-38.01896399999998 979.449791-38.01896399999998zM806.148798 85.42553499999997c-14.789857 0-26.824961-11.989945-26.824961-26.824961l0-51.640309 53.627343 0 0 51.640309C832.97376 73.41300999999999 820.961235 85.42553499999997 806.148798 85.42553499999997L806.148798 85.42553499999997zM655.901918 290.699713c-17.02527 6.006262-34.29892 11.199647-51.820948 15.557574-2.551533 1.332216-5.441764 2.122514-8.377155 2.122514l-9.190033 0c-2.867652 0-5.735303-0.699978-8.309416-2.077354-6.186902-3.34183-13.186681-6.164322-20.231621-8.919074-5.441764-2.167674-11.199647-3.883749-17.00269-5.644983-2.641852-0.699978-5.306284-1.535436-7.993297-2.303153-5.035325-1.377376-10.25129-2.461213-15.467255-3.47731-4.606307-0.925777-9.302933-1.670915-14.022139-2.348313-4.041808-0.564498-8.015877-1.196736-12.125424-1.580595-9.280353-0.970937-18.741345-1.580595-28.224917-1.580595-3.54505 0-7.044939 0.451599-10.567409 0.609658-38.837486 1.377376-76.523396 10.13839-104.590254 25.221786-2.506373 1.377376-5.419184 2.077354-8.309416 2.077354l-6.68366 0c-1.354796 0-2.732172-0.13548-4.086968-0.451599-103.958015-24.612128-200.577552-78.194311-279.539581-154.762867-3.36441-3.29667-5.283705-7.948137-5.283705-12.667343l0-62.930276c0-9.754531 7.857817-161.356207 17.612348-161.356207l390.881235 0 105.403131 0 26.328203 0c-20.52516 42.111577-32.063506 89.393958-32.063506 139.408512C552.237442 148.69450900000004 592.203925 232.48864400000002 655.901918 290.699713L655.901918 290.699713zM265.111003 587.241985c0-18.944564 14.518897-34.29892 32.379625-34.29892l0.587078 0c6.70624-90.500375 77.968512-181.02333 165.059316-181.02333 4.967585 0 9.844851 0.361279 14.722117 0.970937 1.716075 0.180639 3.45473 0.519338 5.215965 0.790298 3.003131 0.474179 5.983682 1.061257 8.941654 1.716075 2.167674 0.519338 4.245028 1.151577 6.435281 1.716075 2.325733 0.654818 4.628886 1.445116 6.93204 2.212834 2.483793 0.880617 4.967585 1.716075 7.383638 2.777332 1.422536 0.519338 2.822492 1.241896 4.199868 1.851555 61.010981 27.4572 105.96763 98.109813 111.251334 168.965645l0.474179 0c17.928467 0 32.424785 15.354355 32.424785 34.29892 0 13.976979-7.902977 26.034664-19.125204 31.386108 6.457861 20.32194 10.07065 42.021257 10.07065 64.75925 0 91.742271-58.211069 168.965645-137.624697 192.719735-1.309636 0.361279-2.551533 0.722558-3.838589 1.083837-6.074002 1.625755-12.238324 2.912811-18.470386 4.019228-1.919294 0.316119-3.770849 0.654818-5.712723 0.903197-7.654598 0.970937-15.399515 1.670915-23.279912 1.670915-104.387034 0-188.994046-89.755237-188.994046-200.396913 0-22.737993 3.590209-44.43731 10.16097-64.75925C273.01398 613.276648 265.111003 601.241544 265.111003 587.241985L265.111003 587.241985zM265.111003 587.241985"  horiz-adv-x="1024" />

    
    <glyph glyph-name="Select" unicode="&#59082;" d="M782.629 95.23199999999997V460.8c17.92 23.04 61.952 68.608 61.952 68.608v-433.664c0-84.48-70.144-155.648-154.624-155.648H152.869c-83.456 0-151.552 69.12-152.576 152.576V636.4159999999999a152.137 152.137 0 0 0 150.016 145.92h493.568v-51.2l-10.24-8.704H152.869c-51.2 0-92.672-41.472-92.672-92.672v-535.552c0-51.2 41.472-92.672 92.672-92.672h537.088a93.842 93.842 0 0 1 92.672 93.696zM1000.229 896l24.064-54.784C765.733 603.648 553.765 268.79999999999995 487.205 97.79200000000003L98.597 492.544l99.328 79.872L422.693 396.8C514.853 505.856 718.629 723.456 1000.229 896z"  horiz-adv-x="1024" />

    
    <glyph glyph-name="More" unicode="&#59042;" d="M44.4923904 509.5145472l449.49540409-274.1501952a34.54475378 34.54475378 0 0 1 36.02441102 0l449.46045156 274.1501952a34.53892835 34.53892835 0 0 1 0 59.0348288l-449.50122952 274.08611555a34.63213511 34.63213511 0 0 1-35.98945848 0l-449.48957867-274.08029013a34.57970631 34.57970631 0 0 1 0-59.04065422zM944.07739165 411.86881991l-432.10069334-263.48384711-432.10069333 263.48384711a33.39132018 33.39132018 0 0 1-34.75446898-57.01923271l449.47792782-274.07446471a33.47870151 33.47870151 0 0 1 34.75446898 0l449.48957867 274.07446471a33.3971456 33.3971456 0 1 1-34.76611982 57.01923271zM944.07739165 256.27761778l-432.10069334-263.47802169-432.10069333 263.47802169a33.39132018 33.39132018 0 0 1-34.75446898-57.01923271l449.47792782-274.08029014a33.50782862 33.50782862 0 0 1 34.75446898 0l449.48957867 274.08029014a33.40297102 33.40297102 0 0 1-34.76611982 57.01923271z"  horiz-adv-x="1024" />

    
    <glyph glyph-name="Copy2" unicode="&#59089;" d="M884.357 630.52c-7.061 7.993-15.433 11.99-25.117 11.99H325.425c-9.683 0-18.056-3.997-25.117-11.99s-10.592-17.867-10.592-29.623v-622.082c0-11.285 3.53-21.042 10.592-29.27 7.061-8.228 15.433-12.343 25.117-12.343h409.137c3.228 0 9.381 4.114 18.46 12.343 9.078 8.229 19.57 18.574 31.472 31.034 11.903 12.46 24.411 26.332 37.525 41.613 13.113 15.282 25.015 29.858 35.708 43.729 10.692 13.87 19.57 26.096 26.63 36.675 7.06 10.58 10.592 17.75 10.592 21.512V600.8969999999999c0 11.756-3.531 21.63-10.592 29.623zM340.544 347.547c0 10.106 8.194 18.3 18.3 18.3h466.977c10.107 0 18.3-8.194 18.3-18.3v-14.24c0-10.107-8.193-18.3-18.3-18.3H358.845c-10.107 0-18.301 8.193-18.301 18.3v14.24z m503.847-141.34c0-10.105-8.194-18.3-18.3-18.3H359.113c-10.107 0-18.3 8.195-18.3 18.3v14.241c0 10.106 8.193 18.3 18.3 18.3H826.09c10.107 0 18.301-8.194 18.301-18.3v-14.24z m0 253.796c0-10.106-8.194-18.3-18.3-18.3H359.113c-10.107 0-18.3 8.194-18.3 18.3v14.24c0 10.106 8.193 18.3 18.3 18.3H826.09c10.107 0 18.301-8.194 18.301-18.3v-14.24zM226.826 702.42h540.329v82.666c0 9.612-7.793 17.404-17.405 17.404H146.457c-9.613 0-17.406-7.792-17.406-17.404v-767.252c0-9.611 7.793-17.404 17.406-17.404h80.37V702.42z"  horiz-adv-x="1024" />

    
    <glyph glyph-name="Clear" unicode="&#59097;" d="M8.4 495.3s219.1-20.6 387.7 172.3l417.7-408.3S611.5 57 583.4-104.10000000000002l-110.5 59.9s37.5 78.7 67.4 78.7c0 0-91.8 1.9-129.2-37.5l-114.2 84.3 148 215.4-208-151.6-123.6 159.2s108.6 54.3 123.6 118c0 0-110.5-45-172.3-41.2L8.4 495.3zM411.1 695.7l430.8-413.9s52.4 43.1 16.9 108.6L517.9 725.7s-48.7 41.2-106.8-30zM914.9 868.1L675.2 633.9l99.3-91.8L1006.7 780S1032 891.5 914.9 868.1z m15.9-105.9c-16.6 0-30 13.4-30 30s13.4 30 30 30 30-13.4 30-30-13.4-30-30-30z"  horiz-adv-x="1024" />

    
    <glyph glyph-name="Save" unicode="&#58882;" d="M910.80616146 839.77827299h-104.44541901c-9.49742318 0-9.49742318-9.49742318-9.49742319-9.49742319v-256.37519225s0-18.98656132-18.9865613-18.98656133H246.1384313s-18.98656132 0-18.98656133 18.98656133V763.8196001599999s0 18.98656132 18.98656133 18.9865613h18.98656131c18.98656132 0 18.98656132-18.98656132 18.98656132-18.9865613v-142.43096923s0-9.49742318 9.48913812-9.49742318h436.79171168c9.49742318 0 9.49742318 9.49742318 9.49742318 9.49742318V830.2808497999999s0 9.49742318-9.49742318 9.49742319H217.64201923c-56.97211152 0-66.48886647-19.00589309-66.48886647-19.0058931l-75.94210275-75.95038778s-18.98656132-9.48913814-18.98656132-56.97211152v-702.65466121c0-28.48674617 28.48674617-56.97211152 56.97211152-56.97211152h797.61232294c28.48674617 0 56.97211152 28.48674617 56.97211152 56.97211152V782.80616146c0 28.4839845-28.48950786 56.97211152-56.97349237 56.97211153z m-56.97349235-835.59649231c0-18.98656132-18.98656132-18.98656132-18.9962272-18.9865613H189.15389221s-18.98656132 0-18.98656132 18.9865613V311.59561145c0 14.24613477 7.91221792 23.3458758 7.91221792 23.34587579l38.37632815 38.37632815S227.13806156 384 243.75648087 384h534.1175154c18.32099603 0 28.48674617-9.49742318 28.48674618-9.49742318l37.97588431-37.98416936s9.49742318-7.31983721 9.49742319-28.48674618v-303.8498806z m-66.4695347 94.95628088H236.63686559c-10.44744167 0-18.98656132-8.55016638-18.9865613-18.9865613v-18.98656133c0-10.44744167 8.54188133-18.98656132 18.9865613-18.98656132h550.7359347c10.44744167 0 18.99622721 8.55016638 18.99622722 18.98656132v18.98656133h-0.0096659c0 10.44744167-8.55016638 18.98656132-18.9962272 18.9865613z m0 113.94560388H236.63686559c-10.44744167 0-18.98656132-8.55016638-18.9865613-18.98656132v-18.9865613c0-10.44744167 8.54188133-18.98656132 18.9865613-18.98656133h550.7359347c10.44744167 0 18.99622721 8.55016638 18.99622722 18.98656133v18.9865613h-0.0096659c0 10.44744167-8.55016638 18.98656132-18.9962272 18.98656132z m0 113.94422304H236.63686559c-10.44744167 0-18.98656132-8.55016638-18.9865613-18.98656132v-18.9865613c0-10.44744167 8.54188133-18.98656132 18.9865613-18.98656133h550.7359347c10.44744167 0 18.99622721 8.55016638 18.99622722 18.98656133v18.9865613h-0.0096659c0 10.44744167-8.55016638 18.98656132-18.9962272 18.98656132z"  horiz-adv-x="1024" />

    
    <glyph glyph-name="Search" unicode="&#58883;" d="M222.6944 673.2032A323.1488 323.1488 0 0 1 133.6832 384c19.2512 87.3728 64.512 172.7488 135.0144 243.3024C339.2512 697.8815999999999 424.6272 743.1168 512 762.3679999999999c-101.632 19.1488-210.688-10.5216-289.3056-89.1648zM989.44 73.88160000000005l-121.7024 121.7024a118.016 118.016 0 0 1-92.8 34.1248c114.4576 165.5552 97.92 394.3936-49.4848 541.824-165.9392 165.9904-435.0464 165.9904-601.0368 0-165.9392-165.9904-165.9392-435.1232 0-601.1136 147.4048-147.4304 376.064-163.84 541.7216-49.3824-2.56-33.28 8.8576-67.5328 34.1248-92.8l121.7024-121.728c46.08-45.9776 121.3696-45.9776 167.3472 0 46.208 45.9776 46.208 121.2928 0.128 167.3728zM676.096 219.904c-138.6752-138.6752-363.392-138.6752-502.016 0-138.6752 138.6752-138.6752 363.4432 0 502.1184 138.624 138.6752 363.3408 138.6752 502.016 0 138.6496-138.5728 138.6496-363.4432 0-502.1184z"  horiz-adv-x="1024" />

    
    <glyph glyph-name="Manager" unicode="&#58889;" d="M518.34638626-114.32249901l1.23599103 226.18635752c0 15.55894585 17.95822255 31.77223987 41.2966413 31.77223987h42.45992696l0.58164284 104.69571032c0 26.31933828 13.15966915 50.31210524 35.91644506 69.43361345l1.81763388 13.81401733c1.16328568 8.36111576 3.63526771 14.90459766 5.96183904 20.93914207a41.73287344 41.73287344 0 0 0 10.17874963 14.32295482c4.21691057 4.21691057 9.01546394 7.77947291 14.39566017 11.34203528 5.38019622 3.63526771 10.76039245 8.4338211 17.30387434 13.81401733a64.85317612 64.85317612 0 0 1 14.39566017 19.70315104 236.21969642 236.21969642 0 0 1 20.35749923 56.85558714 47.54930177 47.54930177 0 0 1 19.1215082 10.83309781 64.85317612 64.85317612 0 0 1 14.39566018 19.70315104 106.87687096 106.87687096 0 0 1 9.59710677 33.51716838 82.7386933 82.7386933 0 0 1-0.65434818 27.55532931 76.0498007 76.0498007 0 0 1-6.54348189 17.95822253 26.464749 26.464749 0 0 1-10.76039245 11.99638348c0.58164283 26.90098113-1.23599101 53.80196225-5.38019623 80.70294338a412.96641296 412.96641296 0 0 1-17.44928506 73.06888116 232.87525011 232.87525011 0 0 1-37.66137357 71.2512473 189.76097497 189.76097497 0 0 1-29.30025783 28.13697215A272.20884685 272.20884685 0 0 1 568.65849151 885.66694533 216.29842931 216.29842931 0 0 1 512.38454721 892.93748077c-15.55894585 0-31.77223987-1.81763387-47.91282855-4.21691057-16.72223151-2.90821418-32.93552555-7.77947291-49.07611421-14.32295481-16.14058867-6.54348189-32.28117736-16.14058867-47.8401232-28.13697215-15.55894585-11.99638348-29.95460601-26.90098113-43.11427515-44.85920366a214.48079547 214.48079547 0 0 1-30.53624885-65.87105109c-7.19783009-24.57440977-11.99638348-47.25848035-14.32295481-68.85197061-3.63526771-25.73769545-4.79855339-51.47539091-4.21691056-76.55873817a70.16066699 70.16066699 0 0 1-11.99638346-21.59349026 67.25245282 67.25245282 0 0 1-5.38019623-23.92006159 69.86984558 69.86984558 0 0 1 3.63526772-30.53624885c3.56256237-11.34203528 7.77947291-20.35749924 11.92367811-26.31933829 4.79855339-5.96183907 9.01546394-10.76039245 13.15966915-14.39566017 4.79855339-3.56256237 9.59710678-5.96183907 14.39566017-7.12512473 3.63526771-10.83309779 6.54348189-21.01184743 10.17874961-31.11789168 3.63526771-9.01546394 7.19783009-17.44928505 10.76039245-25.73769545a64.85317612 64.85317612 0 0 1 14.39566017-19.77585641c11.34203528-9.59710678 21.52078489-18.53986537 30.53624884-27.5553293a55.83771217 55.83771217 0 0 0 15.4862405-37.07973074c0.65434819-10.17874961 1.23599101-19.7758564 1.23599101-28.718615a69.57902415 69.57902415 0 0 0-20.93914207-49.7304624c-7.77947291-8.36111576-18.53986537-16.72223151-32.93552553-25.08334727-17.3765797-11.41474064-37.73407892-20.35749924-61.07249769-26.39204364-23.2657134-5.96183907-125.05320956-41.2966413-146.57399446-48.42176604-21.59349026-7.27053545-40.71499846-17.3765797-56.92829249-29.95460599-16.14058867-12.5780263-26.31933828-31.69953452-29.88190066-56.2739443-6.54348189-43.04156981-8.36111576-49.65775704-4.7985534-77.79472922 3.63526771-27.55532933 8.94275859-43.62321264 16.72223154-49.07611421 6.03454441-4.79855339 23.41112412-10.17874961 52.71138192-16.7222315 28.71861498-6.54348189 210.70011704-40.71499846 421.32752872-40.71499846a18.90339214 18.90339214 0 0 0-2.90821418 9.59710678z m441.10338511 241.74530335h-35.91644507v90.37275551c0 53.87466761-65.21670289 97.5705856-145.41070878 97.5705856s-145.41070878-43.62321264-145.41070878-97.5705856l-0.6543482-90.37275551h-36.4980879c-20.35749924 0-35.33480223-13.81401734-35.33480224-27.48262396l-0.58164283-195.14117119c0-13.15966915 17.3765797-27.55532933 37.07973074-27.55532932h363.9630041c20.35749924 0 35.26209687 13.81401734 35.26209687 27.55532932l0.58164286 195.14117119c0 13.74131198-17.30387436 27.48262396-37.07973077 27.48262396z m-108.91262089 0h-145.41070877v94.00802323c0 26.90098113 33.44446302 45.44084651 73.57781864 45.4408465s72.41453298-18.53986537 72.41453298-45.4408465l-0.58164285-94.00802323z"  horiz-adv-x="1024" />

    
    <glyph glyph-name="Role" unicode="&#58881;" d="M531.968-12.288000000000011V257.53599999999994c0 42.8544 21.9648 81.408 57.1392 102.8608v4.2496s131.9936 68.608 127.5904 287.0784C712.2944 737.4848 659.456 896 487.936 896h-8.8064C303.1552 896 254.7712 741.7344 250.368 651.7760000000001c-4.4032-205.6704 127.5904-287.0784 127.5904-287.0784s17.6128-17.1008 17.6128-47.104c0-8.5504-13.2096-21.4016-22.016-30.0032-74.752-55.7056-334.336-115.712-351.9488-235.6224-13.1584-51.456-92.3648-132.8128 167.168-167.1168 70.4-8.5504 167.168-12.8512 299.1616-12.8512 52.7872 0 96.768 0 136.3968 4.3008-22.016 12.8-39.6288 25.7024-44.032 29.952-22.016 8.6016-48.384 38.6048-48.384 81.408zM972.8 337.408h-307.2c-25.6 0-51.2-18.5856-51.2-41.8304v-293.2736c0-9.2672 10.24-18.5856 10.24-18.5856l174.08-107.0592c10.24-4.6592 15.36-4.6592 20.48-4.6592 5.12 0 10.24 0 20.48 9.3184l174.08 107.008s10.24 4.7104 10.24 13.9776v293.2736c0 23.2448-20.48 41.8816-51.2 41.8816z m-5.12-162.816c-20.48-23.296-56.32-55.9104-56.32-55.9104s5.12-37.2224 10.24-65.1776c0-9.2672-10.24-18.5856-20.48-18.5856h-10.24c-25.6 9.3184-66.56 27.904-71.68 32.5632-10.24-4.608-46.08-18.5856-76.8-32.5632h-10.24c-10.24 0-20.48 9.3184-20.48 18.5856 5.12 27.9552 10.24 65.1776 10.24 65.1776s-35.84 37.2224-56.32 55.8592c-5.12 9.3184-5.12 18.6368 10.24 18.6368 30.72 4.608 76.8 13.9264 76.8 13.9264s25.6 37.2736 40.96 60.5184c20.48 23.296 20.48 23.296 25.6 23.296 5.12 0 5.12 0 20.48-18.6368 15.36-23.2448 40.96-60.5184 40.96-60.5184s46.08-9.2672 76.8-13.9264c15.36-4.6592 20.48-18.6368 10.24-23.296z"  horiz-adv-x="1024" />

    
    <glyph glyph-name="Excel" unicode="&#58913;" d="M580.242286-25.600000000000023V725.357714H1024V-25.600000000000023H580.242286z m170.715428 682.642286H614.4v-102.4h136.557714v102.4z m0-170.642286H614.4V384h136.557714V486.4z m0-136.557714H614.4v-102.4h136.557714v102.4z m0-170.642286H614.4v-102.4h136.557714V179.20000000000005zM921.6 657.042286h-136.557714v-102.4H921.6v102.4z m0-170.642286h-136.557714V384H921.6V486.4z m0-136.557714h-136.557714v-102.4H921.6v102.4z m0-170.642286h-136.557714v-102.4H921.6V179.20000000000005zM0 738.450286L546.157714 896v-1024L0 29.549713999999994V738.450286zM102.4 179.20000000000005h80.457143l107.300571 136.777143L397.385143 179.20000000000005h80.457143L330.386286 366.957714l147.456 187.684572h-80.457143l-107.227429-136.777143L182.857143 554.642286H102.4l147.529143-187.684572L102.4 179.20000000000005z"  horiz-adv-x="1024" />

    
    <glyph glyph-name="Ok" unicode="&#59015;" d="M1.344 497.344L357.312 226.688 970.688 843.968 1024 686.656 413.312-76.03200000000004 0 329.34400000000005Z"  horiz-adv-x="1024" />

    
    <glyph glyph-name="ResetPassword" unicode="&#58890;" d="M636.172598 448.069989c37.402156 0 67.701422-33.050836 67.701422-73.844462l0-172.261084c0-40.761631-30.299266-73.812467-67.701422-73.812467l-248.217216 0c-37.370161 0-67.701422 33.050836-67.701422 73.812467l0 172.261084c0 40.761631 30.299266 73.844462 67.701422 73.844462L448.009998 448.069989l0 0 127.980003 0 0 0L636.172598 448.069989zM511.520075 383.760037c-35.322481 0-63.990002-27.387721-63.990002-61.206436 0-22.588471 17.53326-39.865771 36.602281-50.488111l0-79.539572 54.807436 0 0 79.539572c19.06902 10.62234 36.602281 27.899641 36.602281 50.488111C575.510077 356.37231699999995 546.842556 383.760037 511.520075 383.760037zM512 575.890017c-60.150601 0-63.830027-50.584096-63.990002-63.990002l0-63.798032-64.405937 0 0 57.622996c0 0 0.031995 134.379003 128.139978 134.379003 128.139978 0 128.139978-134.379003 128.139978-134.379003l0-57.622996L575.990002 448.101984l0 63.798032C575.862022 525.081956 572.150601 575.890017 512 575.890017zM512-128c-282.739822 0-511.920012 229.180191-511.920012 511.920012s229.180191 511.920012 511.920012 511.920012c91.121762 0 176.612404-23.964256 250.712826-65.717732l47.608561 65.877707L895.556069 671.93901l-223.453085 32.794876 52.759756 73.012592C661.512639 812.077113 589.107952 831.818028 512 831.818028c-247.385346 0-447.930011-200.544665-447.930011-447.930011s200.544665-447.930011 447.930011-447.930011 447.930011 200.544665 447.930011 447.930011c0 60.406561-12.126105 117.933573-33.786721 170.533354l59.158756 24.348196C1010.066177 518.682956 1023.920012 452.933229 1023.920012 383.888017 1023.920012 101.18019100000004 794.739822-128 512-128z"  horiz-adv-x="1024" />

    
    <glyph glyph-name="Set" unicode="&#58891;" d="M991.67785 511.914298l-95.935979 0c-1.663896 0-3.278673-0.258896-4.879124-0.49835-5.835915 17.367553-12.803607 34.20094-20.866237 50.367131 1.279133 0.975211 2.592035 1.936095 3.77293 3.088338l67.829851 67.855434c12.486382 12.456706 12.486382 32.731472 0 45.188178L805.943682 813.595198c-12.486382 12.491499-32.760125 12.491499-45.212738 0l-67.859527-67.855434c-1.151219-1.151219-2.128477-2.463098-3.055592-3.742231-16.214287 8.055466-33.033347 14.999622-50.399877 20.86419 0.243547 1.601474 0.497327 3.216251 0.497327 4.880147L639.913275 863.672734c0 17.654079-14.326287 31.980365-31.980365 31.980365L416.067091 895.653099c-17.654079 0-31.980365-14.326287-31.980365-31.980365l0-95.92984c0-1.663896 0.258896-3.278673 0.49835-4.880147-17.366529-5.835915-34.20094-12.808724-50.367131-20.86419-0.975211 1.279133-1.936095 2.591011-3.088338 3.742231l-67.855434 67.855434c-12.456706 12.491499-32.731472 12.491499-45.188178 0l-135.680169-135.680169c-12.491499-12.456706-12.491499-32.731472 0-45.188178l67.855434-67.855434c1.151219-1.151219 2.463098-2.127454 3.742231-3.088338-8.055466-16.180518-14.999622-33.000602-20.86419-50.367131-1.601474 0.239454-3.216251 0.49835-4.880147 0.49835L32.327266 511.915321c-17.654079 0-31.980365-14.326287-31.980365-31.980365l0-191.866842c0-17.654079 14.326287-31.981389 31.980365-31.981389l95.92984 0c1.663896 0 3.278673 0.25378 4.880147 0.497327 5.835915-17.365506 12.808724-34.198893 20.86419-50.399877-1.279133-0.941442-2.591011-1.90335-3.742231-3.055592l-67.855434-67.859527c-12.491499-12.45159-12.491499-32.726356 0-45.212738l135.680169-135.655609c12.456706-12.486382 32.731472-12.486382 45.188178 0l67.855434 67.829851c1.151219 1.180895 2.127454 2.493797 3.088338 3.77293 16.180518-8.061606 33.000602-15.014972 50.367131-20.866237-0.239454-1.600451-0.49835-3.215228-0.49835-4.879124l0-95.935979c0-17.647939 14.326287-31.974225 31.980365-31.974225l191.866842 0c17.654079 0 31.980365 14.326287 31.980365 31.974225l0 95.935979c0 1.663896-0.25378 3.278673-0.497327 4.879124 17.365506 5.835915 34.198893 12.803607 50.399877 20.866237 0.941442-1.279133 1.90335-2.592035 3.055592-3.77293l67.859527-67.829851c12.452613-12.486382 32.726356-12.486382 45.212738 0L941.599292 90.05631800000003c12.486382 12.486382 12.486382 32.761148 0 45.212738l-67.829851 67.859527c-1.180895 1.151219-2.493797 2.128477-3.77293 3.055592 8.061606 16.214287 15.014972 33.034371 20.866237 50.399877 1.600451-0.243547 3.215228-0.497327 4.879124-0.497327l95.935979 0c17.647939 0 31.974225 14.326287 31.974225 31.981389L1023.652076 479.932909C1023.653099 497.588011 1009.326812 511.914298 991.67785 511.914298L991.67785 511.914298zM512.00307 96.19410800000003c-158.921499 0-287.808962 128.857786-287.808962 287.802822 0 158.921499 128.887462 287.808962 287.808962 287.808962 158.978804 0 287.802822-128.887462 287.802822-287.808962C799.805892 225.05189499999994 670.981874 96.19410800000003 512.00307 96.19410800000003L512.00307 96.19410800000003zM352.111476 383.99693c0 20.933775 4.157693 41.851177 12.169157 61.189617 8.007371 19.336394 19.859303 37.074384 34.659381 51.873438 14.800078 14.800078 32.537044 26.65201 51.873438 34.659381 19.338441 8.012488 40.256866 12.169157 61.189617 12.169157 20.926612 0 41.850154-4.157693 61.183478-12.169157 19.336394-8.007371 37.074384-19.859303 51.873438-34.659381 14.800078-14.799054 26.65201-32.537044 34.659381-51.873438 8.013511-19.338441 12.175297-40.256866 12.175297-61.189617 0-20.926612-4.161786-41.850154-12.175297-61.183478-8.007371-19.336394-19.859303-37.075407-34.659381-51.873438-14.799054-14.800078-32.537044-26.65201-51.873438-34.659381-19.333324-8.013511-40.256866-12.175297-61.183478-12.175297-20.933775 0-41.851177 4.161786-61.189617 12.175297-19.337417 8.007371-37.07336 19.859303-51.873438 34.659381-14.800078 14.799054-26.65201 32.537044-34.659381 51.873438C356.268146 342.14677600000005 352.111476 363.07031800000004 352.111476 383.99693L352.111476 383.99693zM352.111476 383.99693"  horiz-adv-x="1024" />

    
    <glyph glyph-name="Version" unicode="&#58950;" d="M512.445071 895.150785C229.912213 895.150785 0.849215 666.098019 0.849215 383.57539199999997c0-282.532858 229.062998-511.585624 511.595856-511.585624 282.502163 0 511.554929 229.052766 511.554929 511.585624 0 282.522626-229.042535 511.575392-511.554929 511.575393z m0.685511-832.947054L183.440704 584.552901h166.10853l246.51795-390.618507-82.936602-131.730663z m119.268687 191.411049l-83.918828 129.950381L675.340907 584.552901h166.077835L632.399269 253.61478z"  horiz-adv-x="1024" />

    
    <glyph glyph-name="CancelOrder" unicode="&#58896;" d="M1065.71568536 664.75566077a177.41920498 177.41920498 0 0 1-250.90569047-250.85439214 177.41920498 177.41920498 0 0 1 250.90569047 250.85439214z m-125.47849513-161.25987245l-71.63970514-71.6653558-35.85832779 35.83267715 71.69100493 71.66535578-71.69100493 71.66535428 35.85832779 35.83267865 71.66535431-71.63970511 71.66535576 71.63970511 35.80702797-35.83267865-71.66535576-71.66535428 71.66535576-71.63970511-35.83267714-35.85832782-71.66535576 71.6653558zM374.55797067-146.05805962h-165.72292768V548.10067342H6.38169786l368.17627281 369.89480587v-1064.05353891zM551.31028385 917.99547929h165.74857686V227.29945854000005H919.51220582L551.31028385-142.5440459900001V917.99547929z"  horiz-adv-x="1127" />

    
    <glyph glyph-name="Index" unicode="&#58880;" d="M569.8048 874.7264a82.0736 82.0736 0 0 1-110.2848 0L13.568 451.2768a41.1392 41.1392 0 0 1 55.0912-61.1072l7.0912 6.7328V-45.05600000000004a82.2784 82.2784 0 0 1 82.2784-82.3808h239.4368v247.7056a57.9328 57.9328 0 0 0 57.9584 58.0096h112.6656a57.9328 57.9328 0 0 0 57.9584-58.0096v-247.7056h245.12a82.2784 82.2784 0 0 1 82.304 82.3808V391.5008c18.2784-16.5376 44.2112-15.2832 59.4176 1.664a41.1392 41.1392 0 0 1-2.9696 58.112L569.8048 874.7008z"  horiz-adv-x="1024" />

    
    <glyph glyph-name="Edit" unicode="&#59264;" d="M81.918259 0l80.4864 293.13024 200.99072-209.36704L81.918259 0z m108.50304 322.4576L632.830259 783.11424l201.0112-209.34656-442.42944-461.0048-201.0112 209.7152zM924.670259 668.48768l-60.33408-62.91456L663.345459 815.04256 723.679539 877.83424C745.838899 900.93568 780.736819 902.22592 801.442099 880.4352l125.72672-130.88768c20.82816-21.68832 19.70176-57.9584-2.47808-81.05984zM81.918259-64h860.16V-128H81.918259v64z"  horiz-adv-x="1024" />

    
    <glyph glyph-name="Link" unicode="&#58960;" d="M664.96128 588.1600000000001L561.28128 484.48a100.48 100.48 0 0 0 64-94.72 101.76 101.76 0 0 0-30.72-74.24L320.00128 45.440000000000055a104.96 104.96 0 0 0-74.24-30.72 106.24 106.24 0 0 0-74.88 30.72 104.96 104.96 0 0 0-30.72 74.24A103.68 103.68 0 0 0 173.44128 192l40.96 40.96a226.56 226.56 0 0 0-17.28 184.32l-124.16-128A248.32 248.32 0 0 1 0.00128 119.67999999999995a243.84 243.84 0 0 1 72.96-174.72A246.4 246.4 0 0 1 248.32128-128a249.6 249.6 0 0 1 174.72 72.96l270.08 270.08A247.04 247.04 0 0 1 768.00128 389.76a243.84 243.84 0 0 1-72.96 174.72 240 240 0 0 1-28.16 23.68z m286.72 234.88A247.68 247.68 0 0 1 776.32128 896a251.52 251.52 0 0 1-175.36-72.32L331.52128 552.96a246.4 246.4 0 0 1 0-350.08 202.24 202.24 0 0 1 28.16-24.32l103.68 103.68a94.72 94.72 0 0 0-31.36 20.48 108.16 108.16 0 0 0-31.36 74.88 103.04 103.04 0 0 0 31.36 74.24l212.48 212.48 7.68 7.68 51.84 49.92a104.96 104.96 0 0 0 179.2-74.88 103.04 103.04 0 0 0-30.08-74.24l-40.96-40.96a223.36 223.36 0 0 0 16.64-184.32l124.8 124.8A244.48 244.48 0 0 1 1024.00128 647.04a248.32 248.32 0 0 1-72.32 176z"  horiz-adv-x="1024" />

    
    <glyph glyph-name="Add" unicode="&#59032;" d="M868.91519999 199.64302222000003h-21.60260741v45.02565926c0 51.57925925-52.4288 80.09955555-103.03715555 80.09955555h-1.21362962v62.98737778h-503.6562963V261.90222222h399.16278518v-62.98737778h-399.28414815v-125.97475556H491.11229629v-0.9709037c0-34.58844445 27.67075555-81.43454815 62.38056296-81.43454815h84.95407408v-106.43531852H176.41813333c-34.83117037 0-62.98737778 28.15620741-62.98737778 62.98737779V575.98957036h314.69416296v0.72817779h0.12136297V891.53327408h377.8029037c34.83117037 0 62.98737778-28.15620741 62.98737778-62.98737778v-628.90287408z m-503.6562963 691.89025186v-251.82814816H113.43075555L365.25890369 891.53327408z m520.40438519-771.50435557c25.48622222 0 46.23928889-20.75306667 46.23928889-46.36065185v-1.94180741c0-25.48622222-20.75306667-46.36065185-46.23928889-46.36065184h-95.39128889v-95.0272c0-25.48622222-20.75306667-46.36065185-46.23928888-46.36065186h-1.45635556c-25.48622222-0.24272592-46.48201482 20.14625185-46.72474074 45.75383703v95.63401483h-94.90583704c-25.72894815-0.12136297-46.60337778 20.75306667-46.72474074 46.48201481v1.57771852c0.36408889 25.60758518 21.11715555 46.11792592 46.72474074 46.36065184h94.90583704v95.51265186c0 25.60758518 20.75306667 46.36065185 46.72474074 46.36065186h1.45635556c25.48622222 0 46.23928889-20.75306667 46.23928888-46.36065186V119.90755554999998l95.39128889 0.12136296z"  horiz-adv-x="1024" />

    
    <glyph glyph-name="Details" unicode="&#58918;" d="M768-128c-143.36 0-256 112.64-256 256s112.64 256 256 256 256-112.64 256-256-112.64-256-256-256z m0 455.68c-107.52 0-199.68-87.04-199.68-199.68 0-107.52 87.04-199.68 199.68-199.68 107.52 0 199.68 87.04 199.68 199.68s-92.16 199.68-199.68 199.68zM199.68 158.72000000000003h256c0-20.48 0-35.84 5.12-56.32H199.68c-15.36 0-30.72 10.24-30.72 30.72 0 10.24 15.36 25.6 30.72 25.6z m0 112.64c-15.36 0-30.72 10.24-30.72 30.72 0 15.36 10.24 30.72 30.72 30.72H512c-15.36-15.36-25.6-35.84-35.84-56.32H199.68z m0 337.92c-15.36 0-30.72 15.36-30.72 30.72s10.24 30.72 30.72 30.72h112.64c15.36 0 30.72-10.24 30.72-30.72 0-15.36-10.24-30.72-30.72-30.72H199.68z m424.96-138.24c0-15.36-10.24-30.72-30.72-30.72H199.68c-15.36 0-30.72 10.24-30.72 30.72 0 15.36 10.24 30.72 30.72 30.72h399.36c15.36-5.12 25.6-15.36 25.6-30.72z m112.64 81.92H455.68V839.68H112.64c-15.36 0-30.72-5.12-40.96-15.36-10.24-15.36-15.36-25.6-15.36-40.96v-793.6c0-30.72 25.6-56.32 56.32-56.32h424.96c15.36-20.48 35.84-40.96 56.32-56.32H112.64C51.2-128 0-76.79999999999995 0-15.360000000000014V783.36C0 844.8 51.2 896 112.64 896h378.88l302.08-296.96V435.2c-20.48 5.12-35.84 5.12-56.32 5.12V552.96zM512 788.48v-174.08h179.2L512 788.48z m281.6-803.84h-56.32v168.96h56.32v-168.96z m0 230.4h-56.32v56.32h56.32v-56.32z m-56.32-174.08"  horiz-adv-x="1024" />

    
    <glyph glyph-name="Delete" unicode="&#59099;" d="M796.69248 763.67360001H228.864c-52.27747555 0-94.63808-42.35719111-94.63808-94.63466667v-31.54488889h757.10236445V669.03893334c0.00113778 52.27747555-42.35832889 94.63466667-94.63694223 94.63466667m-165.30773333 63.08977778l13.92412444-99.56352H380.24874667l13.92298666 99.56352h237.21301334m7.5776 63.08977778H386.59754667c-26.03235555 0-50.24654222-21.07164445-53.88174222-46.88668445L314.26218667 710.96604445c-3.60448-25.78204445 14.75697778-46.85482667 40.78933333-46.85482666h315.45799111c26.03121778 0 44.39267555 21.07050667 40.75861334 46.88554666l-18.45475556 132.00156445c-3.60675555 25.78432-27.81980445 46.85482667-53.85102222 46.85482667m173.50314666-315.44661333H213.09212445c-34.68856889 0-60.53546667-28.27946667-57.39292445-62.84288l51.69493333-568.29610667c3.11068445-34.56455111 34.10261333-62.84288 68.79004445-62.84288h473.1904c34.68743111 0 65.67936 28.28060445 68.79004444 62.84288l51.69379556 568.29724444c3.14140445 34.56227555-22.70549333 62.84174222-57.39292445 62.84174223M386.59413333 6.601955569999973h-94.63808l-31.54602666 441.6250311H386.59413333V6.601955569999973z m189.27616 0H449.68732445V448.22698667h126.18410666V6.601955569999973z m157.72899556 0h-94.63808V448.22698667H765.14417778L733.60042667 6.601955569999973z"  horiz-adv-x="1024" />

    
    <glyph glyph-name="Field" unicode="&#58912;" d="M568.7 666.7h284.5V610H568.7zM568.7 496.5h284.5v-56.7H568.7zM170.5 156.10000000000002h682.7v-56.7H170.5zM227.4 609.9h56.9v-340.4h56.9V609.9h56.9v-56.7H455V666.7H170.5v-113.5h56.9v56.7z m0 0M568.7 326.29999999999995h284.5v-56.7H568.7zM949 896H75C33.8 896 0 862.2 0 821v-874c0-41.3 33.8-75 75-75h874c41.3 0 75 33.8 75 75V821c0 41.2-33.7 75-75 75z m10-886c0-41.3-33.8-75-75-75H138c-41.3 0-75 33.8-75 75V756c0 41.3 33.8 75 75 75h746c41.3 0 75-33.8 75-75v-746z"  horiz-adv-x="1024" />

    
    <glyph glyph-name="Math" unicode="&#58887;" d="M0 896h1024v-1024H0z m246.784-170.666667v-98.645333l225.621333-229.376L238.933333 138.24V42.66666699999996h546.133334v95.573333H382.293333l235.178667 259.072-230.4 232.448h381.610667V725.333333z"  horiz-adv-x="1024" />

    
    <glyph glyph-name="Reset" unicode="&#58888;" d="M869.92160822 282.78615055l136.3472904-41.54309395C943.46665068 34.21461122000005 751.1204533-116.47270161999995 523.57905991-116.47270161999995c-278.53557328 0-504.33238828 225.79681498-504.33238828 504.33238829s225.79681498 504.33238828 504.33238828 504.33238825c139.59457346 0 265.94270235-56.71552212 357.25902871-148.35992181l-98.60212816-98.60212815C716.55052655 711.90611175 625.21361525 753.2433557100001 524.22234104 753.2433557100001 324.20308659 753.2433557100001 162.05507752 591.09534663 162.05507752 391.07609217 162.05507752 191.05683772999998 324.20308659 28.908828650000032 524.22234104 28.908828650000032c162.29725032 0 299.66092488 106.75635948 345.69926718 253.8773219zM954.03704585 820.14073122L690.09366119 575.066068l294.06823894-41.53666111z"  horiz-adv-x="1024" />

    
    </font>
</defs>
</svg>
